%TF.GenerationSoftware,KiCad,Pcbnew,(6.0.1)*%
%TF.CreationDate,2022-08-28T22:10:02+02:00*%
%TF.ProjectId,pannel - copia (3),70616e6e-656c-4202-9d20-636f70696120,rev?*%
%TF.SameCoordinates,Original*%
%TF.FileFunction,Legend,Bot*%
%TF.FilePolarity,Positive*%
%FSLAX46Y46*%
G04 Gerber Fmt 4.6, Leading zero omitted, Abs format (unit mm)*
G04 Created by KiCad (PCBNEW (6.0.1)) date 2022-08-28 22:10:02*
%MOMM*%
%LPD*%
G01*
G04 APERTURE LIST*
%TA.AperFunction,Profile*%
%ADD10C,0.100000*%
%TD*%
G04 APERTURE END LIST*
D10*
X123800000Y-39600000D02*
G75*
G03*
X123800000Y-36400000I0J1600000D01*
G01*
X108300000Y-97400000D02*
G75*
G03*
X108300000Y-97400000I-3500000J0D01*
G01*
X93900000Y-144400000D02*
G75*
G03*
X93900000Y-144400000I-3000000J0D01*
G01*
X122200000Y-36400000D02*
G75*
G03*
X122200000Y-39600000I0J-1600000D01*
G01*
X122200000Y-158900000D02*
G75*
G03*
X122200000Y-162100000I0J-1600000D01*
G01*
X125100000Y-144400000D02*
G75*
G03*
X125100000Y-144400000I-3000000J0D01*
G01*
X58300000Y-144400000D02*
G75*
G03*
X58300000Y-144400000I-3000000J0D01*
G01*
X123800000Y-162100000D02*
G75*
G03*
X123800000Y-158900000I0J1600000D01*
G01*
X47500000Y-158900000D02*
X49100000Y-158900000D01*
X122200000Y-36400000D02*
X123800000Y-36400000D01*
X131300000Y-35000000D02*
X131300000Y-163500000D01*
X122200000Y-39600000D02*
X123800000Y-39600000D01*
X47500000Y-36400000D02*
G75*
G03*
X47500000Y-39600000I0J-1600000D01*
G01*
X70000000Y-81900000D02*
G75*
G03*
X70000000Y-81900000I-3500000J0D01*
G01*
X47500000Y-158900000D02*
G75*
G03*
X47500000Y-162100000I0J-1600000D01*
G01*
X109500000Y-144400000D02*
G75*
G03*
X109500000Y-144400000I-3000000J0D01*
G01*
X49100000Y-162100000D02*
G75*
G03*
X49100000Y-158900000I0J1600000D01*
G01*
X70000000Y-97400000D02*
G75*
G03*
X70000000Y-97400000I-3500000J0D01*
G01*
X122200000Y-162100000D02*
X123800000Y-162100000D01*
X108300000Y-66400000D02*
G75*
G03*
X108300000Y-66400000I-3500000J0D01*
G01*
X70000000Y-66400000D02*
G75*
G03*
X70000000Y-66400000I-3500000J0D01*
G01*
X123800000Y-158900000D02*
X122200000Y-158900000D01*
X40000000Y-163500000D02*
X40000000Y-35000000D01*
X47500000Y-36400000D02*
X49100000Y-36400000D01*
X131300000Y-163500000D02*
X40000000Y-163500000D01*
X78300000Y-144400000D02*
G75*
G03*
X78300000Y-144400000I-3000000J0D01*
G01*
X58800000Y-123800000D02*
G75*
G03*
X58800000Y-123800000I-3500000J0D01*
G01*
X47500000Y-39600000D02*
X49100000Y-39600000D01*
X47500000Y-162100000D02*
X49100000Y-162100000D01*
X108300000Y-81900000D02*
G75*
G03*
X108300000Y-81900000I-3500000J0D01*
G01*
X40000000Y-35000000D02*
X131300000Y-35000000D01*
X49100000Y-39600000D02*
G75*
G03*
X49100000Y-36400000I0J1600000D01*
G01*
M02*
