%FSLAX45Y45*%
G04 Gerber Fmt 4.5, Leading zero omitted, Abs format (unit mm)*
G04 Created by KiCad (PCBNEW (6.0.1)) date 2022-08-28 22:10:06*
%MOMM*%
%LPD*%
G01*
G04 APERTURE LIST*
%TA.AperFunction,Profile*%
%ADD10C,0.100000*%
%TD*%
%ADD11C,0.200000*%
G04 APERTURE END LIST*
D10*
X12380000Y-3960000D02*
G75*
G03*
X12380000Y-3640000I0J160000D01*
G01*
X10830000Y-9740000D02*
G75*
G03*
X10830000Y-9740000I-350000J0D01*
G01*
X9390000Y-14440000D02*
G75*
G03*
X9390000Y-14440000I-300000J0D01*
G01*
X12220000Y-3640000D02*
G75*
G03*
X12220000Y-3960000I0J-160000D01*
G01*
X12220000Y-15890000D02*
G75*
G03*
X12220000Y-16210000I0J-160000D01*
G01*
X12510000Y-14440000D02*
G75*
G03*
X12510000Y-14440000I-300000J0D01*
G01*
X5830000Y-14440000D02*
G75*
G03*
X5830000Y-14440000I-300000J0D01*
G01*
X12380000Y-16210000D02*
G75*
G03*
X12380000Y-15890000I0J160000D01*
G01*
X4750000Y-15890000D02*
X4910000Y-15890000D01*
X12220000Y-3640000D02*
X12380000Y-3640000D01*
X13130000Y-3500000D02*
X13130000Y-16350000D01*
X12220000Y-3960000D02*
X12380000Y-3960000D01*
X4750000Y-3640000D02*
G75*
G03*
X4750000Y-3960000I0J-160000D01*
G01*
X7000000Y-8190000D02*
G75*
G03*
X7000000Y-8190000I-350000J0D01*
G01*
X4750000Y-15890000D02*
G75*
G03*
X4750000Y-16210000I0J-160000D01*
G01*
X10950000Y-14440000D02*
G75*
G03*
X10950000Y-14440000I-300000J0D01*
G01*
X4910000Y-16210000D02*
G75*
G03*
X4910000Y-15890000I0J160000D01*
G01*
X7000000Y-9740000D02*
G75*
G03*
X7000000Y-9740000I-350000J0D01*
G01*
X12220000Y-16210000D02*
X12380000Y-16210000D01*
X10830000Y-6640000D02*
G75*
G03*
X10830000Y-6640000I-350000J0D01*
G01*
X7000000Y-6640000D02*
G75*
G03*
X7000000Y-6640000I-350000J0D01*
G01*
X12380000Y-15890000D02*
X12220000Y-15890000D01*
X4000000Y-16350000D02*
X4000000Y-3500000D01*
X4750000Y-3640000D02*
X4910000Y-3640000D01*
X13130000Y-16350000D02*
X4000000Y-16350000D01*
X7830000Y-14440000D02*
G75*
G03*
X7830000Y-14440000I-300000J0D01*
G01*
X5880000Y-12380000D02*
G75*
G03*
X5880000Y-12380000I-350000J0D01*
G01*
X4750000Y-3960000D02*
X4910000Y-3960000D01*
X4750000Y-16210000D02*
X4910000Y-16210000D01*
X10830000Y-8190000D02*
G75*
G03*
X10830000Y-8190000I-350000J0D01*
G01*
X4000000Y-3500000D02*
X13130000Y-3500000D01*
X4910000Y-3960000D02*
G75*
G03*
X4910000Y-3640000I0J160000D01*
G01*
D11*
X4252619Y-16665476D02*
X4252619Y-16465476D01*
X4300238Y-16465476D01*
X4328810Y-16475000D01*
X4347857Y-16494048D01*
X4357381Y-16513095D01*
X4366905Y-16551190D01*
X4366905Y-16579762D01*
X4357381Y-16617857D01*
X4347857Y-16636905D01*
X4328810Y-16655952D01*
X4300238Y-16665476D01*
X4252619Y-16665476D01*
X4452619Y-16665476D02*
X4452619Y-16532143D01*
X4452619Y-16570238D02*
X4462143Y-16551190D01*
X4471667Y-16541667D01*
X4490714Y-16532143D01*
X4509762Y-16532143D01*
X4576429Y-16665476D02*
X4576429Y-16532143D01*
X4576429Y-16465476D02*
X4566905Y-16475000D01*
X4576429Y-16484524D01*
X4585952Y-16475000D01*
X4576429Y-16465476D01*
X4576429Y-16484524D01*
X4700238Y-16665476D02*
X4681190Y-16655952D01*
X4671667Y-16636905D01*
X4671667Y-16465476D01*
X4805000Y-16665476D02*
X4785952Y-16655952D01*
X4776429Y-16636905D01*
X4776429Y-16465476D01*
X5033571Y-16665476D02*
X5033571Y-16465476D01*
X5100238Y-16608333D01*
X5166905Y-16465476D01*
X5166905Y-16665476D01*
X5347857Y-16665476D02*
X5347857Y-16560714D01*
X5338333Y-16541667D01*
X5319286Y-16532143D01*
X5281190Y-16532143D01*
X5262143Y-16541667D01*
X5347857Y-16655952D02*
X5328810Y-16665476D01*
X5281190Y-16665476D01*
X5262143Y-16655952D01*
X5252619Y-16636905D01*
X5252619Y-16617857D01*
X5262143Y-16598809D01*
X5281190Y-16589286D01*
X5328810Y-16589286D01*
X5347857Y-16579762D01*
X5443095Y-16532143D02*
X5443095Y-16732143D01*
X5443095Y-16541667D02*
X5462143Y-16532143D01*
X5500238Y-16532143D01*
X5519286Y-16541667D01*
X5528810Y-16551190D01*
X5538333Y-16570238D01*
X5538333Y-16627381D01*
X5528810Y-16646428D01*
X5519286Y-16655952D01*
X5500238Y-16665476D01*
X5462143Y-16665476D01*
X5443095Y-16655952D01*
X5624048Y-16646428D02*
X5633571Y-16655952D01*
X5624048Y-16665476D01*
X5614524Y-16655952D01*
X5624048Y-16646428D01*
X5624048Y-16665476D01*
X5624048Y-16541667D02*
X5633571Y-16551190D01*
X5624048Y-16560714D01*
X5614524Y-16551190D01*
X5624048Y-16541667D01*
X5624048Y-16560714D01*
M02*
