M48
; DRILL file {KiCad (6.0.1)} date Mon Aug 29 14:14:44 2022
; FORMAT={-:-/ absolute / metric / decimal}
; #@! TF.CreationDate,2022-08-29T14:14:44+02:00
; #@! TF.GenerationSoftware,Kicad,Pcbnew,(6.0.1)
; #@! TF.FileFunction,MixedPlating,1,2
FMAT,2
METRIC
; #@! TA.AperFunction,Plated,PTH,ViaDrill
T1C0.400
; #@! TA.AperFunction,Plated,PTH,ComponentDrill
T2C0.600
; #@! TA.AperFunction,Plated,PTH,ComponentDrill
T3C0.700
; #@! TA.AperFunction,Plated,PTH,ComponentDrill
T4C0.750
; #@! TA.AperFunction,Plated,PTH,ComponentDrill
T5C0.800
; #@! TA.AperFunction,Plated,PTH,ComponentDrill
T6C1.000
; #@! TA.AperFunction,Plated,PTH,ComponentDrill
T7C1.100
%
G90
G05
T1
X45.5Y-65.8
X49.35Y-62.35
X53.05Y-69.0
X58.2Y-20.7
X61.65Y-96.55
X66.85Y-69.0
X69.85Y-61.7
X70.45Y-38.55
X70.7Y-44.05
X72.6Y-89.85
X72.75Y-40.7
X72.75Y-50.45
X83.7Y-78.3
X84.9Y-103.3
X85.7Y-83.35
X88.35Y-100.15
X88.6Y-86.25
X95.3Y-85.55
X96.9Y-89.85
X98.4Y-90.8
X99.3Y-81.8
X102.25Y-62.66
X103.5Y-97.2
X104.9Y-90.15
X105.25Y-108.15
X107.75Y-81.45
T2
X76.577Y-28.6
X76.6Y-22.7
X78.577Y-28.6
X78.6Y-22.7
T3
X34.34Y-89.4
X34.4Y-94.74
X34.4Y-102.36
X36.64Y-57.8
X36.8Y-62.34
X36.8Y-69.96
X37.7Y-40.48
X37.7Y-43.02
X37.7Y-46.09
X37.7Y-53.71
X41.3Y-62.39
X41.3Y-70.01
X41.7Y-40.48
X41.7Y-43.02
X41.7Y-45.95
X41.7Y-53.57
X41.96Y-89.4
X43.71Y-36.9
X44.26Y-57.8
X45.1Y-26.14
X45.1Y-33.76
X46.25Y-36.9
X46.25Y-40.84
X46.25Y-48.46
X46.59Y-82.6
X46.6Y-71.94
X46.6Y-79.56
X50.44Y-30.4
X50.74Y-34.3
X54.21Y-82.6
X58.06Y-30.4
X58.36Y-34.3
X58.89Y-106.05
X63.89Y-22.55
X65.45Y-72.09
X65.45Y-79.71
X65.59Y-110.05
X66.51Y-106.05
X71.0Y-98.24
X71.0Y-105.86
X71.51Y-22.55
X73.21Y-110.05
X73.29Y-60.45
X73.29Y-64.3
X79.99Y-78.25
X80.05Y-38.94
X80.05Y-46.56
X80.91Y-60.45
X80.91Y-64.3
X83.4Y-49.84
X83.4Y-57.46
X83.6Y-38.84
X83.6Y-46.46
X84.9Y-60.34
X84.9Y-67.96
X86.24Y-94.2
X87.61Y-78.25
X89.03Y-110.5
X93.86Y-94.2
X94.29Y-105.4
X96.65Y-110.5
X101.91Y-105.4
X104.0Y-33.99
X104.0Y-41.61
X107.1Y-34.04
X107.1Y-41.66
X107.6Y-48.99
X107.6Y-56.61
X107.79Y-45.3
X109.44Y-105.25
X111.15Y-33.99
X111.15Y-41.61
X112.1Y-71.54
X112.1Y-79.16
X112.9Y-83.14
X112.9Y-90.76
X115.3Y-33.98
X115.3Y-36.52
X115.3Y-39.43
X115.3Y-41.97
X115.3Y-71.6
X115.3Y-79.22
X115.41Y-45.3
X117.06Y-105.25
X117.2Y-92.84
X117.2Y-100.46
X118.8Y-39.43
X118.8Y-41.97
X118.8Y-46.59
X118.8Y-54.21
X119.0Y-68.17
X119.0Y-75.79
T4
X51.75Y-22.8
X51.75Y-24.07
X51.75Y-25.34
X56.95Y-22.81
X56.95Y-24.08
X56.95Y-25.35
X105.78Y-61.8
X105.83Y-66.94
X107.05Y-61.8
X107.1Y-66.94
X108.32Y-61.8
X108.37Y-66.94
T5
X33.385Y-114.04
X35.925Y-111.5
X35.925Y-116.58
X36.235Y-29.64
X36.5Y-77.5
X38.775Y-27.1
X38.775Y-32.18
X41.5Y-77.5
X47.15Y-93.9
X52.15Y-93.9
X55.35Y-86.3
X55.35Y-93.92
X57.89Y-86.3
X57.89Y-93.92
X60.43Y-86.3
X60.43Y-93.92
X62.74Y-26.25
X62.74Y-29.95
X62.97Y-86.3
X62.97Y-93.92
X65.51Y-86.3
X65.51Y-93.92
X66.5Y-98.25
X66.5Y-103.25
X67.7Y-38.935
X67.7Y-41.475
X67.7Y-44.015
X67.7Y-46.555
X67.7Y-49.095
X67.7Y-51.635
X67.7Y-54.175
X67.74Y-26.25
X68.05Y-86.3
X68.05Y-93.92
X70.0Y-33.35
X70.04Y-82.05
X70.36Y-29.95
X70.59Y-86.3
X70.59Y-93.92
X75.0Y-33.35
X75.32Y-38.935
X75.32Y-41.475
X75.32Y-44.015
X75.32Y-46.555
X75.32Y-49.095
X75.32Y-51.635
X75.32Y-54.175
X75.885Y-97.58
X75.885Y-105.2
X77.66Y-82.05
X78.425Y-97.58
X78.425Y-105.2
X78.5Y-92.8
X78.5Y-108.25
X78.85Y-33.35
X80.965Y-97.58
X80.965Y-105.2
X82.2Y-81.74
X82.2Y-89.36
X83.5Y-92.8
X83.5Y-108.25
X83.505Y-97.58
X83.505Y-105.2
X83.85Y-33.35
X86.045Y-97.58
X86.045Y-105.2
X86.24Y-89.45
X88.585Y-97.58
X88.585Y-105.2
X91.125Y-97.58
X91.125Y-105.2
X93.86Y-89.45
X96.85Y-93.55
X96.85Y-98.55
X101.33Y-85.425
X101.33Y-87.965
X101.33Y-90.505
X101.33Y-93.045
X101.33Y-95.585
X101.33Y-98.125
X101.33Y-100.665
X104.45Y-71.8
X105.45Y-75.15
X105.45Y-80.15
X108.95Y-85.425
X108.95Y-87.965
X108.95Y-90.505
X108.95Y-93.045
X108.95Y-95.585
X108.95Y-98.125
X108.95Y-100.665
X109.45Y-71.8
X112.025Y-50.37
X112.025Y-55.45
X113.135Y-64.99
X114.2Y-93.8
X114.2Y-98.8
X114.565Y-52.91
X115.675Y-62.45
X115.675Y-67.53
T6
X42.9Y-106.025
X45.4Y-106.025
X47.9Y-106.025
X54.1Y-48.625
X54.1Y-64.125
X54.1Y-79.625
X56.6Y-48.625
X56.6Y-64.125
X56.6Y-79.625
X59.1Y-48.625
X59.1Y-64.125
X59.1Y-79.625
X92.4Y-48.625
X92.4Y-64.125
X92.4Y-79.625
X94.9Y-48.625
X94.9Y-64.125
X94.9Y-79.625
X97.4Y-48.625
X97.4Y-64.125
X97.4Y-79.625
X103.74Y-24.56
X103.74Y-27.1
X106.28Y-24.56
X106.28Y-27.1
X108.82Y-24.56
X108.82Y-27.1
X111.36Y-24.56
X111.36Y-27.1
X113.9Y-24.56
X113.9Y-27.1
T7
X84.02Y-22.7
X84.02Y-28.6
X94.18Y-22.7
X94.18Y-28.6
T2
G00X44.9Y-114.215
M15
G01X45.9Y-114.215
M16
G05
G00X44.9Y-122.515
M15
G01X45.9Y-122.515
M16
G05
G00X44.9Y-125.615
M15
G01X45.9Y-125.615
M16
G05
G00X64.9Y-114.215
M15
G01X65.9Y-114.215
M16
G05
G00X64.9Y-122.515
M15
G01X65.9Y-122.515
M16
G05
G00X64.9Y-125.615
M15
G01X65.9Y-125.615
M16
G05
G00X80.5Y-114.215
M15
G01X81.5Y-114.215
M16
G05
G00X80.5Y-122.515
M15
G01X81.5Y-122.515
M16
G05
G00X80.5Y-125.615
M15
G01X81.5Y-125.615
M16
G05
G00X96.1Y-114.215
M15
G01X97.1Y-114.215
M16
G05
G00X96.1Y-122.515
M15
G01X97.1Y-122.515
M16
G05
G00X96.1Y-125.615
M15
G01X97.1Y-125.615
M16
G05
G00X111.7Y-114.215
M15
G01X112.7Y-114.215
M16
G05
G00X111.7Y-122.515
M15
G01X112.7Y-122.515
M16
G05
G00X111.7Y-125.615
M15
G01X112.7Y-125.615
M16
G05
T7
G00X40.6Y-98.875
M15
G01X40.6Y-98.175
M16
G05
G00X50.2Y-98.875
M15
G01X50.2Y-98.175
M16
G05
G00X51.8Y-41.475
M15
G01X51.8Y-40.775
M16
G05
G00X51.8Y-56.975
M15
G01X51.8Y-56.275
M16
G05
G00X51.8Y-72.475
M15
G01X51.8Y-71.775
M16
G05
G00X61.4Y-41.475
M15
G01X61.4Y-40.775
M16
G05
G00X61.4Y-56.975
M15
G01X61.4Y-56.275
M16
G05
G00X61.4Y-72.475
M15
G01X61.4Y-71.775
M16
G05
G00X90.1Y-41.475
M15
G01X90.1Y-40.775
M16
G05
G00X90.1Y-56.975
M15
G01X90.1Y-56.275
M16
G05
G00X90.1Y-72.475
M15
G01X90.1Y-71.775
M16
G05
G00X99.7Y-41.475
M15
G01X99.7Y-40.775
M16
G05
G00X99.7Y-56.975
M15
G01X99.7Y-56.275
M16
G05
G00X99.7Y-72.475
M15
G01X99.7Y-71.775
M16
G05
T0
M30
