%TF.GenerationSoftware,KiCad,Pcbnew,(6.0.1)*%
%TF.CreationDate,2022-08-28T22:10:14+02:00*%
%TF.ProjectId,pannel - copia (3),70616e6e-656c-4202-9d20-636f70696120,rev?*%
%TF.SameCoordinates,Original*%
%TF.FileFunction,Copper,L1,Top*%
%TF.FilePolarity,Positive*%
%FSLAX46Y46*%
G04 Gerber Fmt 4.6, Leading zero omitted, Abs format (unit mm)*
G04 Created by KiCad (PCBNEW (6.0.1)) date 2022-08-28 22:10:14*
%MOMM*%
%LPD*%
G01*
G04 APERTURE LIST*
%TA.AperFunction,Profile*%
%ADD10C,0.100000*%
%TD*%
G04 APERTURE END LIST*
D10*
X123800000Y-39600000D02*
G75*
G03*
X123800000Y-36400000I0J1600000D01*
G01*
X108300000Y-97400000D02*
G75*
G03*
X108300000Y-97400000I-3500000J0D01*
G01*
X93900000Y-144400000D02*
G75*
G03*
X93900000Y-144400000I-3000000J0D01*
G01*
X122200000Y-36400000D02*
G75*
G03*
X122200000Y-39600000I0J-1600000D01*
G01*
X122200000Y-158900000D02*
G75*
G03*
X122200000Y-162100000I0J-1600000D01*
G01*
X125100000Y-144400000D02*
G75*
G03*
X125100000Y-144400000I-3000000J0D01*
G01*
X58300000Y-144400000D02*
G75*
G03*
X58300000Y-144400000I-3000000J0D01*
G01*
X123800000Y-162100000D02*
G75*
G03*
X123800000Y-158900000I0J1600000D01*
G01*
X47500000Y-158900000D02*
X49100000Y-158900000D01*
X122200000Y-36400000D02*
X123800000Y-36400000D01*
X131300000Y-35000000D02*
X131300000Y-163500000D01*
X122200000Y-39600000D02*
X123800000Y-39600000D01*
X47500000Y-36400000D02*
G75*
G03*
X47500000Y-39600000I0J-1600000D01*
G01*
X70000000Y-81900000D02*
G75*
G03*
X70000000Y-81900000I-3500000J0D01*
G01*
X47500000Y-158900000D02*
G75*
G03*
X47500000Y-162100000I0J-1600000D01*
G01*
X109500000Y-144400000D02*
G75*
G03*
X109500000Y-144400000I-3000000J0D01*
G01*
X49100000Y-162100000D02*
G75*
G03*
X49100000Y-158900000I0J1600000D01*
G01*
X70000000Y-97400000D02*
G75*
G03*
X70000000Y-97400000I-3500000J0D01*
G01*
X122200000Y-162100000D02*
X123800000Y-162100000D01*
X108300000Y-66400000D02*
G75*
G03*
X108300000Y-66400000I-3500000J0D01*
G01*
X70000000Y-66400000D02*
G75*
G03*
X70000000Y-66400000I-3500000J0D01*
G01*
X123800000Y-158900000D02*
X122200000Y-158900000D01*
X40000000Y-163500000D02*
X40000000Y-35000000D01*
X47500000Y-36400000D02*
X49100000Y-36400000D01*
X131300000Y-163500000D02*
X40000000Y-163500000D01*
X78300000Y-144400000D02*
G75*
G03*
X78300000Y-144400000I-3000000J0D01*
G01*
X58800000Y-123800000D02*
G75*
G03*
X58800000Y-123800000I-3500000J0D01*
G01*
X47500000Y-39600000D02*
X49100000Y-39600000D01*
X47500000Y-162100000D02*
X49100000Y-162100000D01*
X108300000Y-81900000D02*
G75*
G03*
X108300000Y-81900000I-3500000J0D01*
G01*
X40000000Y-35000000D02*
X131300000Y-35000000D01*
X49100000Y-39600000D02*
G75*
G03*
X49100000Y-36400000I0J1600000D01*
G01*
%TA.AperFunction,NonConductor*%
G36*
X131157121Y-35105002D02*
G01*
X131203614Y-35158658D01*
X131215000Y-35211000D01*
X131215000Y-163289000D01*
X131194998Y-163357121D01*
X131141342Y-163403614D01*
X131089000Y-163415000D01*
X40211000Y-163415000D01*
X40142879Y-163394998D01*
X40096386Y-163341342D01*
X40085000Y-163289000D01*
X40085000Y-160620653D01*
X45890000Y-160620653D01*
X45890703Y-160625314D01*
X45925142Y-160853808D01*
X45925964Y-160859263D01*
X45997090Y-161089849D01*
X46101789Y-161307258D01*
X46104444Y-161311152D01*
X46104445Y-161311154D01*
X46235060Y-161502732D01*
X46235065Y-161502738D01*
X46237721Y-161506634D01*
X46401851Y-161683523D01*
X46405529Y-161686456D01*
X46405531Y-161686458D01*
X46586830Y-161831040D01*
X46586834Y-161831043D01*
X46590511Y-161833975D01*
X46594587Y-161836328D01*
X46594591Y-161836331D01*
X46700349Y-161897390D01*
X46799488Y-161954628D01*
X47024113Y-162042787D01*
X47028705Y-162043835D01*
X47028708Y-162043836D01*
X47230417Y-162089874D01*
X47259369Y-162096482D01*
X47264062Y-162096834D01*
X47264064Y-162096834D01*
X47358903Y-162103941D01*
X47500000Y-162114515D01*
X47500000Y-162111062D01*
X47510039Y-162110000D01*
X49086115Y-162110000D01*
X49100000Y-162111231D01*
X49100000Y-162114515D01*
X49256016Y-162102823D01*
X49335936Y-162096834D01*
X49335938Y-162096834D01*
X49340631Y-162096482D01*
X49369583Y-162089874D01*
X49571292Y-162043836D01*
X49571295Y-162043835D01*
X49575887Y-162042787D01*
X49800512Y-161954628D01*
X49899651Y-161897390D01*
X50005409Y-161836331D01*
X50005413Y-161836328D01*
X50009489Y-161833975D01*
X50013166Y-161831043D01*
X50013170Y-161831040D01*
X50194469Y-161686458D01*
X50194471Y-161686456D01*
X50198149Y-161683523D01*
X50362279Y-161506634D01*
X50364935Y-161502738D01*
X50364940Y-161502732D01*
X50495555Y-161311154D01*
X50495556Y-161311152D01*
X50498211Y-161307258D01*
X50602910Y-161089849D01*
X50674036Y-160859263D01*
X50674859Y-160853808D01*
X50709297Y-160625314D01*
X50710000Y-160620653D01*
X120590000Y-160620653D01*
X120590703Y-160625314D01*
X120625142Y-160853808D01*
X120625964Y-160859263D01*
X120697090Y-161089849D01*
X120801789Y-161307258D01*
X120804444Y-161311152D01*
X120804445Y-161311154D01*
X120935060Y-161502732D01*
X120935065Y-161502738D01*
X120937721Y-161506634D01*
X121101851Y-161683523D01*
X121105529Y-161686456D01*
X121105531Y-161686458D01*
X121286830Y-161831040D01*
X121286834Y-161831043D01*
X121290511Y-161833975D01*
X121294587Y-161836328D01*
X121294591Y-161836331D01*
X121400349Y-161897390D01*
X121499488Y-161954628D01*
X121724113Y-162042787D01*
X121728705Y-162043835D01*
X121728708Y-162043836D01*
X121930417Y-162089874D01*
X121959369Y-162096482D01*
X121964062Y-162096834D01*
X121964064Y-162096834D01*
X122058903Y-162103941D01*
X122200000Y-162114515D01*
X122200000Y-162111062D01*
X122210039Y-162110000D01*
X123786115Y-162110000D01*
X123800000Y-162111231D01*
X123800000Y-162114515D01*
X123956016Y-162102823D01*
X124035936Y-162096834D01*
X124035938Y-162096834D01*
X124040631Y-162096482D01*
X124069583Y-162089874D01*
X124271292Y-162043836D01*
X124271295Y-162043835D01*
X124275887Y-162042787D01*
X124500512Y-161954628D01*
X124599651Y-161897390D01*
X124705409Y-161836331D01*
X124705413Y-161836328D01*
X124709489Y-161833975D01*
X124713166Y-161831043D01*
X124713170Y-161831040D01*
X124894469Y-161686458D01*
X124894471Y-161686456D01*
X124898149Y-161683523D01*
X125062279Y-161506634D01*
X125064935Y-161502738D01*
X125064940Y-161502732D01*
X125195555Y-161311154D01*
X125195556Y-161311152D01*
X125198211Y-161307258D01*
X125302910Y-161089849D01*
X125374036Y-160859263D01*
X125374859Y-160853808D01*
X125409297Y-160625314D01*
X125410000Y-160620653D01*
X125410000Y-160379347D01*
X125390107Y-160247362D01*
X125374738Y-160145392D01*
X125374737Y-160145387D01*
X125374036Y-160140737D01*
X125302910Y-159910151D01*
X125198211Y-159692743D01*
X125062279Y-159493366D01*
X124898149Y-159316477D01*
X124734888Y-159186280D01*
X124713170Y-159168960D01*
X124713166Y-159168957D01*
X124709489Y-159166025D01*
X124705413Y-159163672D01*
X124705409Y-159163669D01*
X124599651Y-159102610D01*
X124500512Y-159045372D01*
X124275887Y-158957213D01*
X124271295Y-158956165D01*
X124271292Y-158956164D01*
X124045223Y-158904566D01*
X124045222Y-158904566D01*
X124040631Y-158903518D01*
X124035938Y-158903166D01*
X124035936Y-158903166D01*
X123941097Y-158896059D01*
X123800000Y-158885485D01*
X123800000Y-158888938D01*
X123789961Y-158890000D01*
X122213885Y-158890000D01*
X122200000Y-158888769D01*
X122200000Y-158885485D01*
X122043984Y-158897177D01*
X121964064Y-158903166D01*
X121964062Y-158903166D01*
X121959369Y-158903518D01*
X121954778Y-158904566D01*
X121954777Y-158904566D01*
X121728708Y-158956164D01*
X121728705Y-158956165D01*
X121724113Y-158957213D01*
X121499488Y-159045372D01*
X121400349Y-159102610D01*
X121294591Y-159163669D01*
X121294587Y-159163672D01*
X121290511Y-159166025D01*
X121286834Y-159168957D01*
X121286830Y-159168960D01*
X121265112Y-159186280D01*
X121101851Y-159316477D01*
X120937721Y-159493366D01*
X120801789Y-159692743D01*
X120697090Y-159910151D01*
X120625964Y-160140737D01*
X120625263Y-160145387D01*
X120625262Y-160145392D01*
X120609893Y-160247362D01*
X120590000Y-160379347D01*
X120590000Y-160620653D01*
X50710000Y-160620653D01*
X50710000Y-160379347D01*
X50690107Y-160247362D01*
X50674738Y-160145392D01*
X50674737Y-160145387D01*
X50674036Y-160140737D01*
X50602910Y-159910151D01*
X50498211Y-159692743D01*
X50362279Y-159493366D01*
X50198149Y-159316477D01*
X50034888Y-159186280D01*
X50013170Y-159168960D01*
X50013166Y-159168957D01*
X50009489Y-159166025D01*
X50005413Y-159163672D01*
X50005409Y-159163669D01*
X49899651Y-159102610D01*
X49800512Y-159045372D01*
X49575887Y-158957213D01*
X49571295Y-158956165D01*
X49571292Y-158956164D01*
X49345223Y-158904566D01*
X49345222Y-158904566D01*
X49340631Y-158903518D01*
X49335938Y-158903166D01*
X49335936Y-158903166D01*
X49241097Y-158896059D01*
X49100000Y-158885485D01*
X49100000Y-158888938D01*
X49089961Y-158890000D01*
X47513885Y-158890000D01*
X47500000Y-158888769D01*
X47500000Y-158885485D01*
X47343984Y-158897177D01*
X47264064Y-158903166D01*
X47264062Y-158903166D01*
X47259369Y-158903518D01*
X47254778Y-158904566D01*
X47254777Y-158904566D01*
X47028708Y-158956164D01*
X47028705Y-158956165D01*
X47024113Y-158957213D01*
X46799488Y-159045372D01*
X46700349Y-159102610D01*
X46594591Y-159163669D01*
X46594587Y-159163672D01*
X46590511Y-159166025D01*
X46586834Y-159168957D01*
X46586830Y-159168960D01*
X46565112Y-159186280D01*
X46401851Y-159316477D01*
X46237721Y-159493366D01*
X46101789Y-159692743D01*
X45997090Y-159910151D01*
X45925964Y-160140737D01*
X45925263Y-160145387D01*
X45925262Y-160145392D01*
X45909893Y-160247362D01*
X45890000Y-160379347D01*
X45890000Y-160620653D01*
X40085000Y-160620653D01*
X40085000Y-144305293D01*
X52286387Y-144305293D01*
X52286408Y-144306082D01*
X52295473Y-144652297D01*
X52344383Y-144995957D01*
X52432469Y-145331717D01*
X52558561Y-145655129D01*
X52720990Y-145961904D01*
X52723047Y-145964897D01*
X52915546Y-146244985D01*
X52915552Y-146244992D01*
X52917603Y-146247977D01*
X52919991Y-146250714D01*
X53106034Y-146463979D01*
X53145793Y-146509556D01*
X53402535Y-146743174D01*
X53405477Y-146745288D01*
X53681477Y-146943614D01*
X53681483Y-146943618D01*
X53684428Y-146945734D01*
X53987734Y-147114552D01*
X54308434Y-147247390D01*
X54311928Y-147248385D01*
X54311930Y-147248386D01*
X54638775Y-147341491D01*
X54638780Y-147341492D01*
X54642276Y-147342488D01*
X54832389Y-147373620D01*
X54981255Y-147397998D01*
X54981262Y-147397999D01*
X54984836Y-147398584D01*
X55158204Y-147406760D01*
X55327946Y-147414765D01*
X55327947Y-147414765D01*
X55331573Y-147414936D01*
X55339548Y-147414392D01*
X55674260Y-147391574D01*
X55674267Y-147391573D01*
X55677892Y-147391326D01*
X55681468Y-147390663D01*
X55681470Y-147390663D01*
X56015637Y-147328729D01*
X56015641Y-147328728D01*
X56019202Y-147328068D01*
X56350980Y-147226000D01*
X56404576Y-147202473D01*
X56665495Y-147087938D01*
X56665500Y-147087935D01*
X56668827Y-147086475D01*
X56968531Y-146911342D01*
X57189694Y-146745288D01*
X57243213Y-146705105D01*
X57243217Y-146705102D01*
X57246120Y-146702922D01*
X57497914Y-146463979D01*
X57720576Y-146197678D01*
X57730407Y-146182712D01*
X57909167Y-145910576D01*
X57909172Y-145910567D01*
X57911154Y-145907550D01*
X57989138Y-145752496D01*
X58065496Y-145600677D01*
X58065499Y-145600669D01*
X58067123Y-145597441D01*
X58164364Y-145331717D01*
X58185167Y-145274871D01*
X58185168Y-145274867D01*
X58186415Y-145271460D01*
X58187260Y-145267938D01*
X58187263Y-145267930D01*
X58266602Y-144937457D01*
X58266603Y-144937453D01*
X58267449Y-144933928D01*
X58267987Y-144929483D01*
X58308815Y-144592099D01*
X58308815Y-144592092D01*
X58309151Y-144589320D01*
X58315101Y-144400000D01*
X58309640Y-144305293D01*
X72286387Y-144305293D01*
X72286408Y-144306082D01*
X72295473Y-144652297D01*
X72344383Y-144995957D01*
X72432469Y-145331717D01*
X72558561Y-145655129D01*
X72720990Y-145961904D01*
X72723047Y-145964897D01*
X72915546Y-146244985D01*
X72915552Y-146244992D01*
X72917603Y-146247977D01*
X72919991Y-146250714D01*
X73106034Y-146463979D01*
X73145793Y-146509556D01*
X73402535Y-146743174D01*
X73405477Y-146745288D01*
X73681477Y-146943614D01*
X73681483Y-146943618D01*
X73684428Y-146945734D01*
X73987734Y-147114552D01*
X74308434Y-147247390D01*
X74311928Y-147248385D01*
X74311930Y-147248386D01*
X74638775Y-147341491D01*
X74638780Y-147341492D01*
X74642276Y-147342488D01*
X74832389Y-147373620D01*
X74981255Y-147397998D01*
X74981262Y-147397999D01*
X74984836Y-147398584D01*
X75158204Y-147406760D01*
X75327946Y-147414765D01*
X75327947Y-147414765D01*
X75331573Y-147414936D01*
X75339548Y-147414392D01*
X75674260Y-147391574D01*
X75674267Y-147391573D01*
X75677892Y-147391326D01*
X75681468Y-147390663D01*
X75681470Y-147390663D01*
X76015637Y-147328729D01*
X76015641Y-147328728D01*
X76019202Y-147328068D01*
X76350980Y-147226000D01*
X76404576Y-147202473D01*
X76665495Y-147087938D01*
X76665500Y-147087935D01*
X76668827Y-147086475D01*
X76968531Y-146911342D01*
X77189694Y-146745288D01*
X77243213Y-146705105D01*
X77243217Y-146705102D01*
X77246120Y-146702922D01*
X77497914Y-146463979D01*
X77720576Y-146197678D01*
X77730407Y-146182712D01*
X77909167Y-145910576D01*
X77909172Y-145910567D01*
X77911154Y-145907550D01*
X77989138Y-145752496D01*
X78065496Y-145600677D01*
X78065499Y-145600669D01*
X78067123Y-145597441D01*
X78164364Y-145331717D01*
X78185167Y-145274871D01*
X78185168Y-145274867D01*
X78186415Y-145271460D01*
X78187260Y-145267938D01*
X78187263Y-145267930D01*
X78266602Y-144937457D01*
X78266603Y-144937453D01*
X78267449Y-144933928D01*
X78267987Y-144929483D01*
X78308815Y-144592099D01*
X78308815Y-144592092D01*
X78309151Y-144589320D01*
X78315101Y-144400000D01*
X78309640Y-144305293D01*
X87886387Y-144305293D01*
X87886408Y-144306082D01*
X87895473Y-144652297D01*
X87944383Y-144995957D01*
X88032469Y-145331717D01*
X88158561Y-145655129D01*
X88320990Y-145961904D01*
X88323047Y-145964897D01*
X88515546Y-146244985D01*
X88515552Y-146244992D01*
X88517603Y-146247977D01*
X88519991Y-146250714D01*
X88706034Y-146463979D01*
X88745793Y-146509556D01*
X89002535Y-146743174D01*
X89005477Y-146745288D01*
X89281477Y-146943614D01*
X89281483Y-146943618D01*
X89284428Y-146945734D01*
X89587734Y-147114552D01*
X89908434Y-147247390D01*
X89911928Y-147248385D01*
X89911930Y-147248386D01*
X90238775Y-147341491D01*
X90238780Y-147341492D01*
X90242276Y-147342488D01*
X90432389Y-147373620D01*
X90581255Y-147397998D01*
X90581262Y-147397999D01*
X90584836Y-147398584D01*
X90758204Y-147406760D01*
X90927946Y-147414765D01*
X90927947Y-147414765D01*
X90931573Y-147414936D01*
X90939548Y-147414392D01*
X91274260Y-147391574D01*
X91274267Y-147391573D01*
X91277892Y-147391326D01*
X91281468Y-147390663D01*
X91281470Y-147390663D01*
X91615637Y-147328729D01*
X91615641Y-147328728D01*
X91619202Y-147328068D01*
X91950980Y-147226000D01*
X92004576Y-147202473D01*
X92265495Y-147087938D01*
X92265500Y-147087935D01*
X92268827Y-147086475D01*
X92568531Y-146911342D01*
X92789694Y-146745288D01*
X92843213Y-146705105D01*
X92843217Y-146705102D01*
X92846120Y-146702922D01*
X93097914Y-146463979D01*
X93320576Y-146197678D01*
X93330407Y-146182712D01*
X93509167Y-145910576D01*
X93509172Y-145910567D01*
X93511154Y-145907550D01*
X93589138Y-145752496D01*
X93665496Y-145600677D01*
X93665499Y-145600669D01*
X93667123Y-145597441D01*
X93764364Y-145331717D01*
X93785167Y-145274871D01*
X93785168Y-145274867D01*
X93786415Y-145271460D01*
X93787260Y-145267938D01*
X93787263Y-145267930D01*
X93866602Y-144937457D01*
X93866603Y-144937453D01*
X93867449Y-144933928D01*
X93867987Y-144929483D01*
X93908815Y-144592099D01*
X93908815Y-144592092D01*
X93909151Y-144589320D01*
X93915101Y-144400000D01*
X93909640Y-144305293D01*
X103486387Y-144305293D01*
X103486408Y-144306082D01*
X103495473Y-144652297D01*
X103544383Y-144995957D01*
X103632469Y-145331717D01*
X103758561Y-145655129D01*
X103920990Y-145961904D01*
X103923047Y-145964897D01*
X104115546Y-146244985D01*
X104115552Y-146244992D01*
X104117603Y-146247977D01*
X104119991Y-146250714D01*
X104306034Y-146463979D01*
X104345793Y-146509556D01*
X104602535Y-146743174D01*
X104605477Y-146745288D01*
X104881477Y-146943614D01*
X104881483Y-146943618D01*
X104884428Y-146945734D01*
X105187734Y-147114552D01*
X105508434Y-147247390D01*
X105511928Y-147248385D01*
X105511930Y-147248386D01*
X105838775Y-147341491D01*
X105838780Y-147341492D01*
X105842276Y-147342488D01*
X106032389Y-147373620D01*
X106181255Y-147397998D01*
X106181262Y-147397999D01*
X106184836Y-147398584D01*
X106358204Y-147406760D01*
X106527946Y-147414765D01*
X106527947Y-147414765D01*
X106531573Y-147414936D01*
X106539548Y-147414392D01*
X106874260Y-147391574D01*
X106874267Y-147391573D01*
X106877892Y-147391326D01*
X106881468Y-147390663D01*
X106881470Y-147390663D01*
X107215637Y-147328729D01*
X107215641Y-147328728D01*
X107219202Y-147328068D01*
X107550980Y-147226000D01*
X107604576Y-147202473D01*
X107865495Y-147087938D01*
X107865500Y-147087935D01*
X107868827Y-147086475D01*
X108168531Y-146911342D01*
X108389694Y-146745288D01*
X108443213Y-146705105D01*
X108443217Y-146705102D01*
X108446120Y-146702922D01*
X108697914Y-146463979D01*
X108920576Y-146197678D01*
X108930407Y-146182712D01*
X109109167Y-145910576D01*
X109109172Y-145910567D01*
X109111154Y-145907550D01*
X109189138Y-145752496D01*
X109265496Y-145600677D01*
X109265499Y-145600669D01*
X109267123Y-145597441D01*
X109364364Y-145331717D01*
X109385167Y-145274871D01*
X109385168Y-145274867D01*
X109386415Y-145271460D01*
X109387260Y-145267938D01*
X109387263Y-145267930D01*
X109466602Y-144937457D01*
X109466603Y-144937453D01*
X109467449Y-144933928D01*
X109467987Y-144929483D01*
X109508815Y-144592099D01*
X109508815Y-144592092D01*
X109509151Y-144589320D01*
X109515101Y-144400000D01*
X109509640Y-144305293D01*
X119086387Y-144305293D01*
X119086408Y-144306082D01*
X119095473Y-144652297D01*
X119144383Y-144995957D01*
X119232469Y-145331717D01*
X119358561Y-145655129D01*
X119520990Y-145961904D01*
X119523047Y-145964897D01*
X119715546Y-146244985D01*
X119715552Y-146244992D01*
X119717603Y-146247977D01*
X119719991Y-146250714D01*
X119906034Y-146463979D01*
X119945793Y-146509556D01*
X120202535Y-146743174D01*
X120205477Y-146745288D01*
X120481477Y-146943614D01*
X120481483Y-146943618D01*
X120484428Y-146945734D01*
X120787734Y-147114552D01*
X121108434Y-147247390D01*
X121111928Y-147248385D01*
X121111930Y-147248386D01*
X121438775Y-147341491D01*
X121438780Y-147341492D01*
X121442276Y-147342488D01*
X121632389Y-147373620D01*
X121781255Y-147397998D01*
X121781262Y-147397999D01*
X121784836Y-147398584D01*
X121958204Y-147406760D01*
X122127946Y-147414765D01*
X122127947Y-147414765D01*
X122131573Y-147414936D01*
X122139548Y-147414392D01*
X122474260Y-147391574D01*
X122474267Y-147391573D01*
X122477892Y-147391326D01*
X122481468Y-147390663D01*
X122481470Y-147390663D01*
X122815637Y-147328729D01*
X122815641Y-147328728D01*
X122819202Y-147328068D01*
X123150980Y-147226000D01*
X123204576Y-147202473D01*
X123465495Y-147087938D01*
X123465500Y-147087935D01*
X123468827Y-147086475D01*
X123768531Y-146911342D01*
X123989694Y-146745288D01*
X124043213Y-146705105D01*
X124043217Y-146705102D01*
X124046120Y-146702922D01*
X124297914Y-146463979D01*
X124520576Y-146197678D01*
X124530407Y-146182712D01*
X124709167Y-145910576D01*
X124709172Y-145910567D01*
X124711154Y-145907550D01*
X124789138Y-145752496D01*
X124865496Y-145600677D01*
X124865499Y-145600669D01*
X124867123Y-145597441D01*
X124964364Y-145331717D01*
X124985167Y-145274871D01*
X124985168Y-145274867D01*
X124986415Y-145271460D01*
X124987260Y-145267938D01*
X124987263Y-145267930D01*
X125066602Y-144937457D01*
X125066603Y-144937453D01*
X125067449Y-144933928D01*
X125067987Y-144929483D01*
X125108815Y-144592099D01*
X125108815Y-144592092D01*
X125109151Y-144589320D01*
X125115101Y-144400000D01*
X125109640Y-144305293D01*
X125095328Y-144057073D01*
X125095327Y-144057068D01*
X125095119Y-144053453D01*
X125078110Y-143955995D01*
X125036063Y-143715072D01*
X125036061Y-143715065D01*
X125035439Y-143711499D01*
X125009282Y-143623192D01*
X124978643Y-143519759D01*
X124936851Y-143378671D01*
X124800661Y-143059380D01*
X124754523Y-142978490D01*
X124630467Y-142760998D01*
X124628676Y-142757858D01*
X124568828Y-142676384D01*
X124425318Y-142481019D01*
X124425316Y-142481016D01*
X124423175Y-142478102D01*
X124186882Y-142223820D01*
X123922927Y-141998382D01*
X123634811Y-141804776D01*
X123326352Y-141645568D01*
X123001638Y-141522869D01*
X122998117Y-141521985D01*
X122998112Y-141521983D01*
X122836752Y-141481452D01*
X122664974Y-141438305D01*
X122640572Y-141435092D01*
X122324425Y-141393470D01*
X122324417Y-141393469D01*
X122320821Y-141392996D01*
X122177299Y-141390742D01*
X121977383Y-141387601D01*
X121977379Y-141387601D01*
X121973741Y-141387544D01*
X121970127Y-141387905D01*
X121970121Y-141387905D01*
X121726073Y-141412264D01*
X121628334Y-141422020D01*
X121289180Y-141495968D01*
X121285753Y-141497141D01*
X121285747Y-141497143D01*
X120964203Y-141607232D01*
X120964198Y-141607234D01*
X120960772Y-141608407D01*
X120957504Y-141609966D01*
X120957496Y-141609969D01*
X120834786Y-141668499D01*
X120647464Y-141757847D01*
X120353409Y-141942307D01*
X120350575Y-141944577D01*
X120350570Y-141944581D01*
X120258459Y-142018376D01*
X120082504Y-142159343D01*
X119838339Y-142406078D01*
X119624152Y-142679241D01*
X119442781Y-142975212D01*
X119296630Y-143290067D01*
X119295490Y-143293514D01*
X119268433Y-143375328D01*
X119187636Y-143619634D01*
X119186900Y-143623189D01*
X119186899Y-143623192D01*
X119169333Y-143708017D01*
X119117244Y-143959545D01*
X119086387Y-144305293D01*
X109509640Y-144305293D01*
X109495328Y-144057073D01*
X109495327Y-144057068D01*
X109495119Y-144053453D01*
X109478110Y-143955995D01*
X109436063Y-143715072D01*
X109436061Y-143715065D01*
X109435439Y-143711499D01*
X109409282Y-143623192D01*
X109378643Y-143519759D01*
X109336851Y-143378671D01*
X109200661Y-143059380D01*
X109154523Y-142978490D01*
X109030467Y-142760998D01*
X109028676Y-142757858D01*
X108968828Y-142676384D01*
X108825318Y-142481019D01*
X108825316Y-142481016D01*
X108823175Y-142478102D01*
X108586882Y-142223820D01*
X108322927Y-141998382D01*
X108034811Y-141804776D01*
X107726352Y-141645568D01*
X107401638Y-141522869D01*
X107398117Y-141521985D01*
X107398112Y-141521983D01*
X107236752Y-141481452D01*
X107064974Y-141438305D01*
X107040572Y-141435092D01*
X106724425Y-141393470D01*
X106724417Y-141393469D01*
X106720821Y-141392996D01*
X106577299Y-141390742D01*
X106377383Y-141387601D01*
X106377379Y-141387601D01*
X106373741Y-141387544D01*
X106370127Y-141387905D01*
X106370121Y-141387905D01*
X106126073Y-141412264D01*
X106028334Y-141422020D01*
X105689180Y-141495968D01*
X105685753Y-141497141D01*
X105685747Y-141497143D01*
X105364203Y-141607232D01*
X105364198Y-141607234D01*
X105360772Y-141608407D01*
X105357504Y-141609966D01*
X105357496Y-141609969D01*
X105234786Y-141668499D01*
X105047464Y-141757847D01*
X104753409Y-141942307D01*
X104750575Y-141944577D01*
X104750570Y-141944581D01*
X104658459Y-142018376D01*
X104482504Y-142159343D01*
X104238339Y-142406078D01*
X104024152Y-142679241D01*
X103842781Y-142975212D01*
X103696630Y-143290067D01*
X103695490Y-143293514D01*
X103668433Y-143375328D01*
X103587636Y-143619634D01*
X103586900Y-143623189D01*
X103586899Y-143623192D01*
X103569333Y-143708017D01*
X103517244Y-143959545D01*
X103486387Y-144305293D01*
X93909640Y-144305293D01*
X93895328Y-144057073D01*
X93895327Y-144057068D01*
X93895119Y-144053453D01*
X93878110Y-143955995D01*
X93836063Y-143715072D01*
X93836061Y-143715065D01*
X93835439Y-143711499D01*
X93809282Y-143623192D01*
X93778643Y-143519759D01*
X93736851Y-143378671D01*
X93600661Y-143059380D01*
X93554523Y-142978490D01*
X93430467Y-142760998D01*
X93428676Y-142757858D01*
X93368828Y-142676384D01*
X93225318Y-142481019D01*
X93225316Y-142481016D01*
X93223175Y-142478102D01*
X92986882Y-142223820D01*
X92722927Y-141998382D01*
X92434811Y-141804776D01*
X92126352Y-141645568D01*
X91801638Y-141522869D01*
X91798117Y-141521985D01*
X91798112Y-141521983D01*
X91636752Y-141481452D01*
X91464974Y-141438305D01*
X91440572Y-141435092D01*
X91124425Y-141393470D01*
X91124417Y-141393469D01*
X91120821Y-141392996D01*
X90977299Y-141390742D01*
X90777383Y-141387601D01*
X90777379Y-141387601D01*
X90773741Y-141387544D01*
X90770127Y-141387905D01*
X90770121Y-141387905D01*
X90526073Y-141412264D01*
X90428334Y-141422020D01*
X90089180Y-141495968D01*
X90085753Y-141497141D01*
X90085747Y-141497143D01*
X89764203Y-141607232D01*
X89764198Y-141607234D01*
X89760772Y-141608407D01*
X89757504Y-141609966D01*
X89757496Y-141609969D01*
X89634786Y-141668499D01*
X89447464Y-141757847D01*
X89153409Y-141942307D01*
X89150575Y-141944577D01*
X89150570Y-141944581D01*
X89058459Y-142018376D01*
X88882504Y-142159343D01*
X88638339Y-142406078D01*
X88424152Y-142679241D01*
X88242781Y-142975212D01*
X88096630Y-143290067D01*
X88095490Y-143293514D01*
X88068433Y-143375328D01*
X87987636Y-143619634D01*
X87986900Y-143623189D01*
X87986899Y-143623192D01*
X87969333Y-143708017D01*
X87917244Y-143959545D01*
X87886387Y-144305293D01*
X78309640Y-144305293D01*
X78295328Y-144057073D01*
X78295327Y-144057068D01*
X78295119Y-144053453D01*
X78278110Y-143955995D01*
X78236063Y-143715072D01*
X78236061Y-143715065D01*
X78235439Y-143711499D01*
X78209282Y-143623192D01*
X78178643Y-143519759D01*
X78136851Y-143378671D01*
X78000661Y-143059380D01*
X77954523Y-142978490D01*
X77830467Y-142760998D01*
X77828676Y-142757858D01*
X77768828Y-142676384D01*
X77625318Y-142481019D01*
X77625316Y-142481016D01*
X77623175Y-142478102D01*
X77386882Y-142223820D01*
X77122927Y-141998382D01*
X76834811Y-141804776D01*
X76526352Y-141645568D01*
X76201638Y-141522869D01*
X76198117Y-141521985D01*
X76198112Y-141521983D01*
X76036752Y-141481452D01*
X75864974Y-141438305D01*
X75840572Y-141435092D01*
X75524425Y-141393470D01*
X75524417Y-141393469D01*
X75520821Y-141392996D01*
X75377299Y-141390742D01*
X75177383Y-141387601D01*
X75177379Y-141387601D01*
X75173741Y-141387544D01*
X75170127Y-141387905D01*
X75170121Y-141387905D01*
X74926073Y-141412264D01*
X74828334Y-141422020D01*
X74489180Y-141495968D01*
X74485753Y-141497141D01*
X74485747Y-141497143D01*
X74164203Y-141607232D01*
X74164198Y-141607234D01*
X74160772Y-141608407D01*
X74157504Y-141609966D01*
X74157496Y-141609969D01*
X74034786Y-141668499D01*
X73847464Y-141757847D01*
X73553409Y-141942307D01*
X73550575Y-141944577D01*
X73550570Y-141944581D01*
X73458459Y-142018376D01*
X73282504Y-142159343D01*
X73038339Y-142406078D01*
X72824152Y-142679241D01*
X72642781Y-142975212D01*
X72496630Y-143290067D01*
X72495490Y-143293514D01*
X72468433Y-143375328D01*
X72387636Y-143619634D01*
X72386900Y-143623189D01*
X72386899Y-143623192D01*
X72369333Y-143708017D01*
X72317244Y-143959545D01*
X72286387Y-144305293D01*
X58309640Y-144305293D01*
X58295328Y-144057073D01*
X58295327Y-144057068D01*
X58295119Y-144053453D01*
X58278110Y-143955995D01*
X58236063Y-143715072D01*
X58236061Y-143715065D01*
X58235439Y-143711499D01*
X58209282Y-143623192D01*
X58178643Y-143519759D01*
X58136851Y-143378671D01*
X58000661Y-143059380D01*
X57954523Y-142978490D01*
X57830467Y-142760998D01*
X57828676Y-142757858D01*
X57768828Y-142676384D01*
X57625318Y-142481019D01*
X57625316Y-142481016D01*
X57623175Y-142478102D01*
X57386882Y-142223820D01*
X57122927Y-141998382D01*
X56834811Y-141804776D01*
X56526352Y-141645568D01*
X56201638Y-141522869D01*
X56198117Y-141521985D01*
X56198112Y-141521983D01*
X56036752Y-141481452D01*
X55864974Y-141438305D01*
X55840572Y-141435092D01*
X55524425Y-141393470D01*
X55524417Y-141393469D01*
X55520821Y-141392996D01*
X55377299Y-141390742D01*
X55177383Y-141387601D01*
X55177379Y-141387601D01*
X55173741Y-141387544D01*
X55170127Y-141387905D01*
X55170121Y-141387905D01*
X54926073Y-141412264D01*
X54828334Y-141422020D01*
X54489180Y-141495968D01*
X54485753Y-141497141D01*
X54485747Y-141497143D01*
X54164203Y-141607232D01*
X54164198Y-141607234D01*
X54160772Y-141608407D01*
X54157504Y-141609966D01*
X54157496Y-141609969D01*
X54034786Y-141668499D01*
X53847464Y-141757847D01*
X53553409Y-141942307D01*
X53550575Y-141944577D01*
X53550570Y-141944581D01*
X53458459Y-142018376D01*
X53282504Y-142159343D01*
X53038339Y-142406078D01*
X52824152Y-142679241D01*
X52642781Y-142975212D01*
X52496630Y-143290067D01*
X52495490Y-143293514D01*
X52468433Y-143375328D01*
X52387636Y-143619634D01*
X52386900Y-143623189D01*
X52386899Y-143623192D01*
X52369333Y-143708017D01*
X52317244Y-143959545D01*
X52286387Y-144305293D01*
X40085000Y-144305293D01*
X40085000Y-123800000D01*
X51785183Y-123800000D01*
X51804438Y-124167398D01*
X51804953Y-124170649D01*
X51861173Y-124525612D01*
X51861990Y-124530772D01*
X51957210Y-124886138D01*
X52089055Y-125229605D01*
X52090553Y-125232545D01*
X52249757Y-125545000D01*
X52256079Y-125557408D01*
X52456453Y-125865958D01*
X52687982Y-126151872D01*
X52948128Y-126412018D01*
X53234042Y-126643547D01*
X53380375Y-126738576D01*
X53539840Y-126842135D01*
X53539847Y-126842139D01*
X53542591Y-126843921D01*
X53545515Y-126845411D01*
X53545517Y-126845412D01*
X53867455Y-127009447D01*
X53870395Y-127010945D01*
X54213862Y-127142790D01*
X54569228Y-127238010D01*
X54572478Y-127238525D01*
X54572484Y-127238526D01*
X54776770Y-127270881D01*
X54932602Y-127295562D01*
X54935887Y-127295734D01*
X54935895Y-127295735D01*
X55296699Y-127314644D01*
X55300000Y-127314817D01*
X55303301Y-127314644D01*
X55664105Y-127295735D01*
X55664113Y-127295734D01*
X55667398Y-127295562D01*
X55823230Y-127270881D01*
X56027516Y-127238526D01*
X56027522Y-127238525D01*
X56030772Y-127238010D01*
X56386138Y-127142790D01*
X56729605Y-127010945D01*
X56732545Y-127009447D01*
X57054483Y-126845412D01*
X57054485Y-126845411D01*
X57057409Y-126843921D01*
X57060153Y-126842139D01*
X57060160Y-126842135D01*
X57219625Y-126738576D01*
X57365958Y-126643547D01*
X57651872Y-126412018D01*
X57912018Y-126151872D01*
X58143547Y-125865958D01*
X58343921Y-125557408D01*
X58350244Y-125545000D01*
X58509447Y-125232545D01*
X58510945Y-125229605D01*
X58642790Y-124886138D01*
X58738010Y-124530772D01*
X58738828Y-124525612D01*
X58795047Y-124170649D01*
X58795562Y-124167398D01*
X58814817Y-123800000D01*
X58795562Y-123432602D01*
X58781251Y-123342247D01*
X58738526Y-123072484D01*
X58738525Y-123072478D01*
X58738010Y-123069228D01*
X58642790Y-122713862D01*
X58510945Y-122370395D01*
X58509447Y-122367455D01*
X58345420Y-122045533D01*
X58345416Y-122045526D01*
X58343921Y-122042592D01*
X58143547Y-121734042D01*
X57912018Y-121448128D01*
X57651872Y-121187982D01*
X57365958Y-120956453D01*
X57060178Y-120757877D01*
X57060160Y-120757865D01*
X57060153Y-120757861D01*
X57057409Y-120756079D01*
X56774100Y-120611726D01*
X56732545Y-120590553D01*
X56729605Y-120589055D01*
X56386138Y-120457210D01*
X56030772Y-120361990D01*
X56027522Y-120361475D01*
X56027516Y-120361474D01*
X55757753Y-120318749D01*
X55667398Y-120304438D01*
X55664113Y-120304266D01*
X55664105Y-120304265D01*
X55303301Y-120285356D01*
X55300000Y-120285183D01*
X55296699Y-120285356D01*
X54935895Y-120304265D01*
X54935887Y-120304266D01*
X54932602Y-120304438D01*
X54842247Y-120318749D01*
X54572484Y-120361474D01*
X54572478Y-120361475D01*
X54569228Y-120361990D01*
X54213862Y-120457210D01*
X53870395Y-120589055D01*
X53867455Y-120590553D01*
X53545533Y-120754580D01*
X53545526Y-120754584D01*
X53542592Y-120756079D01*
X53234042Y-120956453D01*
X52948128Y-121187982D01*
X52687982Y-121448128D01*
X52456453Y-121734042D01*
X52256079Y-122042592D01*
X52254584Y-122045526D01*
X52254580Y-122045533D01*
X52090553Y-122367455D01*
X52089055Y-122370395D01*
X51957210Y-122713862D01*
X51861990Y-123069228D01*
X51861475Y-123072478D01*
X51861474Y-123072484D01*
X51818749Y-123342247D01*
X51804438Y-123432602D01*
X51785183Y-123800000D01*
X40085000Y-123800000D01*
X40085000Y-97400000D01*
X62985183Y-97400000D01*
X63004438Y-97767398D01*
X63004953Y-97770649D01*
X63061173Y-98125612D01*
X63061990Y-98130772D01*
X63157210Y-98486138D01*
X63289055Y-98829605D01*
X63290553Y-98832545D01*
X63449757Y-99145000D01*
X63456079Y-99157408D01*
X63656453Y-99465958D01*
X63887982Y-99751872D01*
X64148128Y-100012018D01*
X64434042Y-100243547D01*
X64580375Y-100338576D01*
X64739840Y-100442135D01*
X64739847Y-100442139D01*
X64742591Y-100443921D01*
X64745515Y-100445411D01*
X64745517Y-100445412D01*
X65067455Y-100609447D01*
X65070395Y-100610945D01*
X65413862Y-100742790D01*
X65769228Y-100838010D01*
X65772478Y-100838525D01*
X65772484Y-100838526D01*
X65976770Y-100870881D01*
X66132602Y-100895562D01*
X66135887Y-100895734D01*
X66135895Y-100895735D01*
X66496699Y-100914644D01*
X66500000Y-100914817D01*
X66503301Y-100914644D01*
X66864105Y-100895735D01*
X66864113Y-100895734D01*
X66867398Y-100895562D01*
X67023230Y-100870881D01*
X67227516Y-100838526D01*
X67227522Y-100838525D01*
X67230772Y-100838010D01*
X67586138Y-100742790D01*
X67929605Y-100610945D01*
X67932545Y-100609447D01*
X68254483Y-100445412D01*
X68254485Y-100445411D01*
X68257409Y-100443921D01*
X68260153Y-100442139D01*
X68260160Y-100442135D01*
X68419625Y-100338576D01*
X68565958Y-100243547D01*
X68851872Y-100012018D01*
X69112018Y-99751872D01*
X69343547Y-99465958D01*
X69543921Y-99157408D01*
X69550244Y-99145000D01*
X69709447Y-98832545D01*
X69710945Y-98829605D01*
X69842790Y-98486138D01*
X69938010Y-98130772D01*
X69938828Y-98125612D01*
X69995047Y-97770649D01*
X69995562Y-97767398D01*
X70014817Y-97400000D01*
X101285183Y-97400000D01*
X101304438Y-97767398D01*
X101304953Y-97770649D01*
X101361173Y-98125612D01*
X101361990Y-98130772D01*
X101457210Y-98486138D01*
X101589055Y-98829605D01*
X101590553Y-98832545D01*
X101749757Y-99145000D01*
X101756079Y-99157408D01*
X101956453Y-99465958D01*
X102187982Y-99751872D01*
X102448128Y-100012018D01*
X102734042Y-100243547D01*
X102880375Y-100338576D01*
X103039840Y-100442135D01*
X103039847Y-100442139D01*
X103042591Y-100443921D01*
X103045515Y-100445411D01*
X103045517Y-100445412D01*
X103367455Y-100609447D01*
X103370395Y-100610945D01*
X103713862Y-100742790D01*
X104069228Y-100838010D01*
X104072478Y-100838525D01*
X104072484Y-100838526D01*
X104276770Y-100870881D01*
X104432602Y-100895562D01*
X104435887Y-100895734D01*
X104435895Y-100895735D01*
X104796699Y-100914644D01*
X104800000Y-100914817D01*
X104803301Y-100914644D01*
X105164105Y-100895735D01*
X105164113Y-100895734D01*
X105167398Y-100895562D01*
X105323230Y-100870881D01*
X105527516Y-100838526D01*
X105527522Y-100838525D01*
X105530772Y-100838010D01*
X105886138Y-100742790D01*
X106229605Y-100610945D01*
X106232545Y-100609447D01*
X106554483Y-100445412D01*
X106554485Y-100445411D01*
X106557409Y-100443921D01*
X106560153Y-100442139D01*
X106560160Y-100442135D01*
X106719625Y-100338576D01*
X106865958Y-100243547D01*
X107151872Y-100012018D01*
X107412018Y-99751872D01*
X107643547Y-99465958D01*
X107843921Y-99157408D01*
X107850244Y-99145000D01*
X108009447Y-98832545D01*
X108010945Y-98829605D01*
X108142790Y-98486138D01*
X108238010Y-98130772D01*
X108238828Y-98125612D01*
X108295047Y-97770649D01*
X108295562Y-97767398D01*
X108314817Y-97400000D01*
X108295562Y-97032602D01*
X108281251Y-96942247D01*
X108238526Y-96672484D01*
X108238525Y-96672478D01*
X108238010Y-96669228D01*
X108142790Y-96313862D01*
X108010945Y-95970395D01*
X108009447Y-95967455D01*
X107845420Y-95645533D01*
X107845416Y-95645526D01*
X107843921Y-95642592D01*
X107643547Y-95334042D01*
X107412018Y-95048128D01*
X107151872Y-94787982D01*
X106865958Y-94556453D01*
X106560178Y-94357877D01*
X106560160Y-94357865D01*
X106560153Y-94357861D01*
X106557409Y-94356079D01*
X106274100Y-94211726D01*
X106232545Y-94190553D01*
X106229605Y-94189055D01*
X105886138Y-94057210D01*
X105530772Y-93961990D01*
X105527522Y-93961475D01*
X105527516Y-93961474D01*
X105257753Y-93918749D01*
X105167398Y-93904438D01*
X105164113Y-93904266D01*
X105164105Y-93904265D01*
X104803301Y-93885356D01*
X104800000Y-93885183D01*
X104796699Y-93885356D01*
X104435895Y-93904265D01*
X104435887Y-93904266D01*
X104432602Y-93904438D01*
X104342247Y-93918749D01*
X104072484Y-93961474D01*
X104072478Y-93961475D01*
X104069228Y-93961990D01*
X103713862Y-94057210D01*
X103370395Y-94189055D01*
X103367455Y-94190553D01*
X103045533Y-94354580D01*
X103045526Y-94354584D01*
X103042592Y-94356079D01*
X102734042Y-94556453D01*
X102448128Y-94787982D01*
X102187982Y-95048128D01*
X101956453Y-95334042D01*
X101756079Y-95642592D01*
X101754584Y-95645526D01*
X101754580Y-95645533D01*
X101590553Y-95967455D01*
X101589055Y-95970395D01*
X101457210Y-96313862D01*
X101361990Y-96669228D01*
X101361475Y-96672478D01*
X101361474Y-96672484D01*
X101318749Y-96942247D01*
X101304438Y-97032602D01*
X101285183Y-97400000D01*
X70014817Y-97400000D01*
X69995562Y-97032602D01*
X69981251Y-96942247D01*
X69938526Y-96672484D01*
X69938525Y-96672478D01*
X69938010Y-96669228D01*
X69842790Y-96313862D01*
X69710945Y-95970395D01*
X69709447Y-95967455D01*
X69545420Y-95645533D01*
X69545416Y-95645526D01*
X69543921Y-95642592D01*
X69343547Y-95334042D01*
X69112018Y-95048128D01*
X68851872Y-94787982D01*
X68565958Y-94556453D01*
X68260178Y-94357877D01*
X68260160Y-94357865D01*
X68260153Y-94357861D01*
X68257409Y-94356079D01*
X67974100Y-94211726D01*
X67932545Y-94190553D01*
X67929605Y-94189055D01*
X67586138Y-94057210D01*
X67230772Y-93961990D01*
X67227522Y-93961475D01*
X67227516Y-93961474D01*
X66957753Y-93918749D01*
X66867398Y-93904438D01*
X66864113Y-93904266D01*
X66864105Y-93904265D01*
X66503301Y-93885356D01*
X66500000Y-93885183D01*
X66496699Y-93885356D01*
X66135895Y-93904265D01*
X66135887Y-93904266D01*
X66132602Y-93904438D01*
X66042247Y-93918749D01*
X65772484Y-93961474D01*
X65772478Y-93961475D01*
X65769228Y-93961990D01*
X65413862Y-94057210D01*
X65070395Y-94189055D01*
X65067455Y-94190553D01*
X64745533Y-94354580D01*
X64745526Y-94354584D01*
X64742592Y-94356079D01*
X64434042Y-94556453D01*
X64148128Y-94787982D01*
X63887982Y-95048128D01*
X63656453Y-95334042D01*
X63456079Y-95642592D01*
X63454584Y-95645526D01*
X63454580Y-95645533D01*
X63290553Y-95967455D01*
X63289055Y-95970395D01*
X63157210Y-96313862D01*
X63061990Y-96669228D01*
X63061475Y-96672478D01*
X63061474Y-96672484D01*
X63018749Y-96942247D01*
X63004438Y-97032602D01*
X62985183Y-97400000D01*
X40085000Y-97400000D01*
X40085000Y-81900000D01*
X62985183Y-81900000D01*
X63004438Y-82267398D01*
X63004953Y-82270649D01*
X63061173Y-82625612D01*
X63061990Y-82630772D01*
X63157210Y-82986138D01*
X63289055Y-83329605D01*
X63290553Y-83332545D01*
X63449757Y-83645000D01*
X63456079Y-83657408D01*
X63656453Y-83965958D01*
X63887982Y-84251872D01*
X64148128Y-84512018D01*
X64434042Y-84743547D01*
X64580375Y-84838576D01*
X64739840Y-84942135D01*
X64739847Y-84942139D01*
X64742591Y-84943921D01*
X64745515Y-84945411D01*
X64745517Y-84945412D01*
X65067455Y-85109447D01*
X65070395Y-85110945D01*
X65413862Y-85242790D01*
X65769228Y-85338010D01*
X65772478Y-85338525D01*
X65772484Y-85338526D01*
X65976770Y-85370881D01*
X66132602Y-85395562D01*
X66135887Y-85395734D01*
X66135895Y-85395735D01*
X66496699Y-85414644D01*
X66500000Y-85414817D01*
X66503301Y-85414644D01*
X66864105Y-85395735D01*
X66864113Y-85395734D01*
X66867398Y-85395562D01*
X67023230Y-85370881D01*
X67227516Y-85338526D01*
X67227522Y-85338525D01*
X67230772Y-85338010D01*
X67586138Y-85242790D01*
X67929605Y-85110945D01*
X67932545Y-85109447D01*
X68254483Y-84945412D01*
X68254485Y-84945411D01*
X68257409Y-84943921D01*
X68260153Y-84942139D01*
X68260160Y-84942135D01*
X68419625Y-84838576D01*
X68565958Y-84743547D01*
X68851872Y-84512018D01*
X69112018Y-84251872D01*
X69343547Y-83965958D01*
X69543921Y-83657408D01*
X69550244Y-83645000D01*
X69709447Y-83332545D01*
X69710945Y-83329605D01*
X69842790Y-82986138D01*
X69938010Y-82630772D01*
X69938828Y-82625612D01*
X69995047Y-82270649D01*
X69995562Y-82267398D01*
X70014817Y-81900000D01*
X101285183Y-81900000D01*
X101304438Y-82267398D01*
X101304953Y-82270649D01*
X101361173Y-82625612D01*
X101361990Y-82630772D01*
X101457210Y-82986138D01*
X101589055Y-83329605D01*
X101590553Y-83332545D01*
X101749757Y-83645000D01*
X101756079Y-83657408D01*
X101956453Y-83965958D01*
X102187982Y-84251872D01*
X102448128Y-84512018D01*
X102734042Y-84743547D01*
X102880375Y-84838576D01*
X103039840Y-84942135D01*
X103039847Y-84942139D01*
X103042591Y-84943921D01*
X103045515Y-84945411D01*
X103045517Y-84945412D01*
X103367455Y-85109447D01*
X103370395Y-85110945D01*
X103713862Y-85242790D01*
X104069228Y-85338010D01*
X104072478Y-85338525D01*
X104072484Y-85338526D01*
X104276770Y-85370881D01*
X104432602Y-85395562D01*
X104435887Y-85395734D01*
X104435895Y-85395735D01*
X104796699Y-85414644D01*
X104800000Y-85414817D01*
X104803301Y-85414644D01*
X105164105Y-85395735D01*
X105164113Y-85395734D01*
X105167398Y-85395562D01*
X105323230Y-85370881D01*
X105527516Y-85338526D01*
X105527522Y-85338525D01*
X105530772Y-85338010D01*
X105886138Y-85242790D01*
X106229605Y-85110945D01*
X106232545Y-85109447D01*
X106554483Y-84945412D01*
X106554485Y-84945411D01*
X106557409Y-84943921D01*
X106560153Y-84942139D01*
X106560160Y-84942135D01*
X106719625Y-84838576D01*
X106865958Y-84743547D01*
X107151872Y-84512018D01*
X107412018Y-84251872D01*
X107643547Y-83965958D01*
X107843921Y-83657408D01*
X107850244Y-83645000D01*
X108009447Y-83332545D01*
X108010945Y-83329605D01*
X108142790Y-82986138D01*
X108238010Y-82630772D01*
X108238828Y-82625612D01*
X108295047Y-82270649D01*
X108295562Y-82267398D01*
X108314817Y-81900000D01*
X108295562Y-81532602D01*
X108281251Y-81442247D01*
X108238526Y-81172484D01*
X108238525Y-81172478D01*
X108238010Y-81169228D01*
X108142790Y-80813862D01*
X108010945Y-80470395D01*
X108009447Y-80467455D01*
X107845420Y-80145533D01*
X107845416Y-80145526D01*
X107843921Y-80142592D01*
X107643547Y-79834042D01*
X107412018Y-79548128D01*
X107151872Y-79287982D01*
X106865958Y-79056453D01*
X106560178Y-78857877D01*
X106560160Y-78857865D01*
X106560153Y-78857861D01*
X106557409Y-78856079D01*
X106274100Y-78711726D01*
X106232545Y-78690553D01*
X106229605Y-78689055D01*
X105886138Y-78557210D01*
X105530772Y-78461990D01*
X105527522Y-78461475D01*
X105527516Y-78461474D01*
X105257753Y-78418749D01*
X105167398Y-78404438D01*
X105164113Y-78404266D01*
X105164105Y-78404265D01*
X104803301Y-78385356D01*
X104800000Y-78385183D01*
X104796699Y-78385356D01*
X104435895Y-78404265D01*
X104435887Y-78404266D01*
X104432602Y-78404438D01*
X104342247Y-78418749D01*
X104072484Y-78461474D01*
X104072478Y-78461475D01*
X104069228Y-78461990D01*
X103713862Y-78557210D01*
X103370395Y-78689055D01*
X103367455Y-78690553D01*
X103045533Y-78854580D01*
X103045526Y-78854584D01*
X103042592Y-78856079D01*
X102734042Y-79056453D01*
X102448128Y-79287982D01*
X102187982Y-79548128D01*
X101956453Y-79834042D01*
X101756079Y-80142592D01*
X101754584Y-80145526D01*
X101754580Y-80145533D01*
X101590553Y-80467455D01*
X101589055Y-80470395D01*
X101457210Y-80813862D01*
X101361990Y-81169228D01*
X101361475Y-81172478D01*
X101361474Y-81172484D01*
X101318749Y-81442247D01*
X101304438Y-81532602D01*
X101285183Y-81900000D01*
X70014817Y-81900000D01*
X69995562Y-81532602D01*
X69981251Y-81442247D01*
X69938526Y-81172484D01*
X69938525Y-81172478D01*
X69938010Y-81169228D01*
X69842790Y-80813862D01*
X69710945Y-80470395D01*
X69709447Y-80467455D01*
X69545420Y-80145533D01*
X69545416Y-80145526D01*
X69543921Y-80142592D01*
X69343547Y-79834042D01*
X69112018Y-79548128D01*
X68851872Y-79287982D01*
X68565958Y-79056453D01*
X68260178Y-78857877D01*
X68260160Y-78857865D01*
X68260153Y-78857861D01*
X68257409Y-78856079D01*
X67974100Y-78711726D01*
X67932545Y-78690553D01*
X67929605Y-78689055D01*
X67586138Y-78557210D01*
X67230772Y-78461990D01*
X67227522Y-78461475D01*
X67227516Y-78461474D01*
X66957753Y-78418749D01*
X66867398Y-78404438D01*
X66864113Y-78404266D01*
X66864105Y-78404265D01*
X66503301Y-78385356D01*
X66500000Y-78385183D01*
X66496699Y-78385356D01*
X66135895Y-78404265D01*
X66135887Y-78404266D01*
X66132602Y-78404438D01*
X66042247Y-78418749D01*
X65772484Y-78461474D01*
X65772478Y-78461475D01*
X65769228Y-78461990D01*
X65413862Y-78557210D01*
X65070395Y-78689055D01*
X65067455Y-78690553D01*
X64745533Y-78854580D01*
X64745526Y-78854584D01*
X64742592Y-78856079D01*
X64434042Y-79056453D01*
X64148128Y-79287982D01*
X63887982Y-79548128D01*
X63656453Y-79834042D01*
X63456079Y-80142592D01*
X63454584Y-80145526D01*
X63454580Y-80145533D01*
X63290553Y-80467455D01*
X63289055Y-80470395D01*
X63157210Y-80813862D01*
X63061990Y-81169228D01*
X63061475Y-81172478D01*
X63061474Y-81172484D01*
X63018749Y-81442247D01*
X63004438Y-81532602D01*
X62985183Y-81900000D01*
X40085000Y-81900000D01*
X40085000Y-66400000D01*
X62985183Y-66400000D01*
X63004438Y-66767398D01*
X63004953Y-66770649D01*
X63061173Y-67125612D01*
X63061990Y-67130772D01*
X63157210Y-67486138D01*
X63289055Y-67829605D01*
X63290553Y-67832545D01*
X63449757Y-68145000D01*
X63456079Y-68157408D01*
X63656453Y-68465958D01*
X63887982Y-68751872D01*
X64148128Y-69012018D01*
X64434042Y-69243547D01*
X64580375Y-69338576D01*
X64739840Y-69442135D01*
X64739847Y-69442139D01*
X64742591Y-69443921D01*
X64745515Y-69445411D01*
X64745517Y-69445412D01*
X65067455Y-69609447D01*
X65070395Y-69610945D01*
X65413862Y-69742790D01*
X65769228Y-69838010D01*
X65772478Y-69838525D01*
X65772484Y-69838526D01*
X65976770Y-69870881D01*
X66132602Y-69895562D01*
X66135887Y-69895734D01*
X66135895Y-69895735D01*
X66496699Y-69914644D01*
X66500000Y-69914817D01*
X66503301Y-69914644D01*
X66864105Y-69895735D01*
X66864113Y-69895734D01*
X66867398Y-69895562D01*
X67023230Y-69870881D01*
X67227516Y-69838526D01*
X67227522Y-69838525D01*
X67230772Y-69838010D01*
X67586138Y-69742790D01*
X67929605Y-69610945D01*
X67932545Y-69609447D01*
X68254483Y-69445412D01*
X68254485Y-69445411D01*
X68257409Y-69443921D01*
X68260153Y-69442139D01*
X68260160Y-69442135D01*
X68419625Y-69338576D01*
X68565958Y-69243547D01*
X68851872Y-69012018D01*
X69112018Y-68751872D01*
X69343547Y-68465958D01*
X69543921Y-68157408D01*
X69550244Y-68145000D01*
X69709447Y-67832545D01*
X69710945Y-67829605D01*
X69842790Y-67486138D01*
X69938010Y-67130772D01*
X69938828Y-67125612D01*
X69995047Y-66770649D01*
X69995562Y-66767398D01*
X70014817Y-66400000D01*
X101285183Y-66400000D01*
X101304438Y-66767398D01*
X101304953Y-66770649D01*
X101361173Y-67125612D01*
X101361990Y-67130772D01*
X101457210Y-67486138D01*
X101589055Y-67829605D01*
X101590553Y-67832545D01*
X101749757Y-68145000D01*
X101756079Y-68157408D01*
X101956453Y-68465958D01*
X102187982Y-68751872D01*
X102448128Y-69012018D01*
X102734042Y-69243547D01*
X102880375Y-69338576D01*
X103039840Y-69442135D01*
X103039847Y-69442139D01*
X103042591Y-69443921D01*
X103045515Y-69445411D01*
X103045517Y-69445412D01*
X103367455Y-69609447D01*
X103370395Y-69610945D01*
X103713862Y-69742790D01*
X104069228Y-69838010D01*
X104072478Y-69838525D01*
X104072484Y-69838526D01*
X104276770Y-69870881D01*
X104432602Y-69895562D01*
X104435887Y-69895734D01*
X104435895Y-69895735D01*
X104796699Y-69914644D01*
X104800000Y-69914817D01*
X104803301Y-69914644D01*
X105164105Y-69895735D01*
X105164113Y-69895734D01*
X105167398Y-69895562D01*
X105323230Y-69870881D01*
X105527516Y-69838526D01*
X105527522Y-69838525D01*
X105530772Y-69838010D01*
X105886138Y-69742790D01*
X106229605Y-69610945D01*
X106232545Y-69609447D01*
X106554483Y-69445412D01*
X106554485Y-69445411D01*
X106557409Y-69443921D01*
X106560153Y-69442139D01*
X106560160Y-69442135D01*
X106719625Y-69338576D01*
X106865958Y-69243547D01*
X107151872Y-69012018D01*
X107412018Y-68751872D01*
X107643547Y-68465958D01*
X107843921Y-68157408D01*
X107850244Y-68145000D01*
X108009447Y-67832545D01*
X108010945Y-67829605D01*
X108142790Y-67486138D01*
X108238010Y-67130772D01*
X108238828Y-67125612D01*
X108295047Y-66770649D01*
X108295562Y-66767398D01*
X108314817Y-66400000D01*
X108295562Y-66032602D01*
X108281251Y-65942247D01*
X108238526Y-65672484D01*
X108238525Y-65672478D01*
X108238010Y-65669228D01*
X108142790Y-65313862D01*
X108010945Y-64970395D01*
X108009447Y-64967455D01*
X107845420Y-64645533D01*
X107845416Y-64645526D01*
X107843921Y-64642592D01*
X107643547Y-64334042D01*
X107412018Y-64048128D01*
X107151872Y-63787982D01*
X106865958Y-63556453D01*
X106560178Y-63357877D01*
X106560160Y-63357865D01*
X106560153Y-63357861D01*
X106557409Y-63356079D01*
X106274100Y-63211726D01*
X106232545Y-63190553D01*
X106229605Y-63189055D01*
X105886138Y-63057210D01*
X105530772Y-62961990D01*
X105527522Y-62961475D01*
X105527516Y-62961474D01*
X105257753Y-62918749D01*
X105167398Y-62904438D01*
X105164113Y-62904266D01*
X105164105Y-62904265D01*
X104803301Y-62885356D01*
X104800000Y-62885183D01*
X104796699Y-62885356D01*
X104435895Y-62904265D01*
X104435887Y-62904266D01*
X104432602Y-62904438D01*
X104342247Y-62918749D01*
X104072484Y-62961474D01*
X104072478Y-62961475D01*
X104069228Y-62961990D01*
X103713862Y-63057210D01*
X103370395Y-63189055D01*
X103367455Y-63190553D01*
X103045533Y-63354580D01*
X103045526Y-63354584D01*
X103042592Y-63356079D01*
X102734042Y-63556453D01*
X102448128Y-63787982D01*
X102187982Y-64048128D01*
X101956453Y-64334042D01*
X101756079Y-64642592D01*
X101754584Y-64645526D01*
X101754580Y-64645533D01*
X101590553Y-64967455D01*
X101589055Y-64970395D01*
X101457210Y-65313862D01*
X101361990Y-65669228D01*
X101361475Y-65672478D01*
X101361474Y-65672484D01*
X101318749Y-65942247D01*
X101304438Y-66032602D01*
X101285183Y-66400000D01*
X70014817Y-66400000D01*
X69995562Y-66032602D01*
X69981251Y-65942247D01*
X69938526Y-65672484D01*
X69938525Y-65672478D01*
X69938010Y-65669228D01*
X69842790Y-65313862D01*
X69710945Y-64970395D01*
X69709447Y-64967455D01*
X69545420Y-64645533D01*
X69545416Y-64645526D01*
X69543921Y-64642592D01*
X69343547Y-64334042D01*
X69112018Y-64048128D01*
X68851872Y-63787982D01*
X68565958Y-63556453D01*
X68260178Y-63357877D01*
X68260160Y-63357865D01*
X68260153Y-63357861D01*
X68257409Y-63356079D01*
X67974100Y-63211726D01*
X67932545Y-63190553D01*
X67929605Y-63189055D01*
X67586138Y-63057210D01*
X67230772Y-62961990D01*
X67227522Y-62961475D01*
X67227516Y-62961474D01*
X66957753Y-62918749D01*
X66867398Y-62904438D01*
X66864113Y-62904266D01*
X66864105Y-62904265D01*
X66503301Y-62885356D01*
X66500000Y-62885183D01*
X66496699Y-62885356D01*
X66135895Y-62904265D01*
X66135887Y-62904266D01*
X66132602Y-62904438D01*
X66042247Y-62918749D01*
X65772484Y-62961474D01*
X65772478Y-62961475D01*
X65769228Y-62961990D01*
X65413862Y-63057210D01*
X65070395Y-63189055D01*
X65067455Y-63190553D01*
X64745533Y-63354580D01*
X64745526Y-63354584D01*
X64742592Y-63356079D01*
X64434042Y-63556453D01*
X64148128Y-63787982D01*
X63887982Y-64048128D01*
X63656453Y-64334042D01*
X63456079Y-64642592D01*
X63454584Y-64645526D01*
X63454580Y-64645533D01*
X63290553Y-64967455D01*
X63289055Y-64970395D01*
X63157210Y-65313862D01*
X63061990Y-65669228D01*
X63061475Y-65672478D01*
X63061474Y-65672484D01*
X63018749Y-65942247D01*
X63004438Y-66032602D01*
X62985183Y-66400000D01*
X40085000Y-66400000D01*
X40085000Y-38120653D01*
X45890000Y-38120653D01*
X45890703Y-38125314D01*
X45925142Y-38353808D01*
X45925964Y-38359263D01*
X45997090Y-38589849D01*
X46101789Y-38807258D01*
X46104444Y-38811152D01*
X46104445Y-38811154D01*
X46235060Y-39002732D01*
X46235065Y-39002738D01*
X46237721Y-39006634D01*
X46401851Y-39183523D01*
X46405529Y-39186456D01*
X46405531Y-39186458D01*
X46586830Y-39331040D01*
X46586834Y-39331043D01*
X46590511Y-39333975D01*
X46594587Y-39336328D01*
X46594591Y-39336331D01*
X46700349Y-39397390D01*
X46799488Y-39454628D01*
X47024113Y-39542787D01*
X47028705Y-39543835D01*
X47028708Y-39543836D01*
X47230417Y-39589874D01*
X47259369Y-39596482D01*
X47264062Y-39596834D01*
X47264064Y-39596834D01*
X47358903Y-39603941D01*
X47500000Y-39614515D01*
X47500000Y-39611062D01*
X47510039Y-39610000D01*
X49086115Y-39610000D01*
X49100000Y-39611231D01*
X49100000Y-39614515D01*
X49256016Y-39602823D01*
X49335936Y-39596834D01*
X49335938Y-39596834D01*
X49340631Y-39596482D01*
X49369583Y-39589874D01*
X49571292Y-39543836D01*
X49571295Y-39543835D01*
X49575887Y-39542787D01*
X49800512Y-39454628D01*
X49899651Y-39397390D01*
X50005409Y-39336331D01*
X50005413Y-39336328D01*
X50009489Y-39333975D01*
X50013166Y-39331043D01*
X50013170Y-39331040D01*
X50194469Y-39186458D01*
X50194471Y-39186456D01*
X50198149Y-39183523D01*
X50362279Y-39006634D01*
X50364935Y-39002738D01*
X50364940Y-39002732D01*
X50495555Y-38811154D01*
X50495556Y-38811152D01*
X50498211Y-38807258D01*
X50602910Y-38589849D01*
X50674036Y-38359263D01*
X50674859Y-38353808D01*
X50709297Y-38125314D01*
X50710000Y-38120653D01*
X120590000Y-38120653D01*
X120590703Y-38125314D01*
X120625142Y-38353808D01*
X120625964Y-38359263D01*
X120697090Y-38589849D01*
X120801789Y-38807258D01*
X120804444Y-38811152D01*
X120804445Y-38811154D01*
X120935060Y-39002732D01*
X120935065Y-39002738D01*
X120937721Y-39006634D01*
X121101851Y-39183523D01*
X121105529Y-39186456D01*
X121105531Y-39186458D01*
X121286830Y-39331040D01*
X121286834Y-39331043D01*
X121290511Y-39333975D01*
X121294587Y-39336328D01*
X121294591Y-39336331D01*
X121400349Y-39397390D01*
X121499488Y-39454628D01*
X121724113Y-39542787D01*
X121728705Y-39543835D01*
X121728708Y-39543836D01*
X121930417Y-39589874D01*
X121959369Y-39596482D01*
X121964062Y-39596834D01*
X121964064Y-39596834D01*
X122058903Y-39603941D01*
X122200000Y-39614515D01*
X122200000Y-39611062D01*
X122210039Y-39610000D01*
X123786115Y-39610000D01*
X123800000Y-39611231D01*
X123800000Y-39614515D01*
X123956016Y-39602823D01*
X124035936Y-39596834D01*
X124035938Y-39596834D01*
X124040631Y-39596482D01*
X124069583Y-39589874D01*
X124271292Y-39543836D01*
X124271295Y-39543835D01*
X124275887Y-39542787D01*
X124500512Y-39454628D01*
X124599651Y-39397390D01*
X124705409Y-39336331D01*
X124705413Y-39336328D01*
X124709489Y-39333975D01*
X124713166Y-39331043D01*
X124713170Y-39331040D01*
X124894469Y-39186458D01*
X124894471Y-39186456D01*
X124898149Y-39183523D01*
X125062279Y-39006634D01*
X125064935Y-39002738D01*
X125064940Y-39002732D01*
X125195555Y-38811154D01*
X125195556Y-38811152D01*
X125198211Y-38807258D01*
X125302910Y-38589849D01*
X125374036Y-38359263D01*
X125374859Y-38353808D01*
X125409297Y-38125314D01*
X125410000Y-38120653D01*
X125410000Y-37879347D01*
X125390107Y-37747362D01*
X125374738Y-37645392D01*
X125374737Y-37645387D01*
X125374036Y-37640737D01*
X125302910Y-37410151D01*
X125198211Y-37192743D01*
X125062279Y-36993366D01*
X124898149Y-36816477D01*
X124734888Y-36686280D01*
X124713170Y-36668960D01*
X124713166Y-36668957D01*
X124709489Y-36666025D01*
X124705413Y-36663672D01*
X124705409Y-36663669D01*
X124599651Y-36602610D01*
X124500512Y-36545372D01*
X124275887Y-36457213D01*
X124271295Y-36456165D01*
X124271292Y-36456164D01*
X124045223Y-36404566D01*
X124045222Y-36404566D01*
X124040631Y-36403518D01*
X124035938Y-36403166D01*
X124035936Y-36403166D01*
X123941097Y-36396059D01*
X123800000Y-36385485D01*
X123800000Y-36388938D01*
X123789961Y-36390000D01*
X122213885Y-36390000D01*
X122200000Y-36388769D01*
X122200000Y-36385485D01*
X122043984Y-36397177D01*
X121964064Y-36403166D01*
X121964062Y-36403166D01*
X121959369Y-36403518D01*
X121954778Y-36404566D01*
X121954777Y-36404566D01*
X121728708Y-36456164D01*
X121728705Y-36456165D01*
X121724113Y-36457213D01*
X121499488Y-36545372D01*
X121400349Y-36602610D01*
X121294591Y-36663669D01*
X121294587Y-36663672D01*
X121290511Y-36666025D01*
X121286834Y-36668957D01*
X121286830Y-36668960D01*
X121265112Y-36686280D01*
X121101851Y-36816477D01*
X120937721Y-36993366D01*
X120801789Y-37192743D01*
X120697090Y-37410151D01*
X120625964Y-37640737D01*
X120625263Y-37645387D01*
X120625262Y-37645392D01*
X120609893Y-37747362D01*
X120590000Y-37879347D01*
X120590000Y-38120653D01*
X50710000Y-38120653D01*
X50710000Y-37879347D01*
X50690107Y-37747362D01*
X50674738Y-37645392D01*
X50674737Y-37645387D01*
X50674036Y-37640737D01*
X50602910Y-37410151D01*
X50498211Y-37192743D01*
X50362279Y-36993366D01*
X50198149Y-36816477D01*
X50034888Y-36686280D01*
X50013170Y-36668960D01*
X50013166Y-36668957D01*
X50009489Y-36666025D01*
X50005413Y-36663672D01*
X50005409Y-36663669D01*
X49899651Y-36602610D01*
X49800512Y-36545372D01*
X49575887Y-36457213D01*
X49571295Y-36456165D01*
X49571292Y-36456164D01*
X49345223Y-36404566D01*
X49345222Y-36404566D01*
X49340631Y-36403518D01*
X49335938Y-36403166D01*
X49335936Y-36403166D01*
X49241097Y-36396059D01*
X49100000Y-36385485D01*
X49100000Y-36388938D01*
X49089961Y-36390000D01*
X47513885Y-36390000D01*
X47500000Y-36388769D01*
X47500000Y-36385485D01*
X47343984Y-36397177D01*
X47264064Y-36403166D01*
X47264062Y-36403166D01*
X47259369Y-36403518D01*
X47254778Y-36404566D01*
X47254777Y-36404566D01*
X47028708Y-36456164D01*
X47028705Y-36456165D01*
X47024113Y-36457213D01*
X46799488Y-36545372D01*
X46700349Y-36602610D01*
X46594591Y-36663669D01*
X46594587Y-36663672D01*
X46590511Y-36666025D01*
X46586834Y-36668957D01*
X46586830Y-36668960D01*
X46565112Y-36686280D01*
X46401851Y-36816477D01*
X46237721Y-36993366D01*
X46101789Y-37192743D01*
X45997090Y-37410151D01*
X45925964Y-37640737D01*
X45925263Y-37645387D01*
X45925262Y-37645392D01*
X45909893Y-37747362D01*
X45890000Y-37879347D01*
X45890000Y-38120653D01*
X40085000Y-38120653D01*
X40085000Y-35211000D01*
X40105002Y-35142879D01*
X40158658Y-35096386D01*
X40211000Y-35085000D01*
X131089000Y-35085000D01*
X131157121Y-35105002D01*
G37*
%TD.AperFunction*%
M02*
