%TF.GenerationSoftware,KiCad,Pcbnew,(6.0.1)*%
%TF.CreationDate,2022-08-29T14:14:55+02:00*%
%TF.ProjectId,vco,76636f2e-6b69-4636-9164-5f7063625858,rev?*%
%TF.SameCoordinates,Original*%
%TF.FileFunction,Copper,L1,Top*%
%TF.FilePolarity,Positive*%
%FSLAX46Y46*%
G04 Gerber Fmt 4.6, Leading zero omitted, Abs format (unit mm)*
G04 Created by KiCad (PCBNEW (6.0.1)) date 2022-08-29 14:14:55*
%MOMM*%
%LPD*%
G01*
G04 APERTURE LIST*
G04 Aperture macros list*
%AMRoundRect*
0 Rectangle with rounded corners*
0 $1 Rounding radius*
0 $2 $3 $4 $5 $6 $7 $8 $9 X,Y pos of 4 corners*
0 Add a 4 corners polygon primitive as box body*
4,1,4,$2,$3,$4,$5,$6,$7,$8,$9,$2,$3,0*
0 Add four circle primitives for the rounded corners*
1,1,$1+$1,$2,$3*
1,1,$1+$1,$4,$5*
1,1,$1+$1,$6,$7*
1,1,$1+$1,$8,$9*
0 Add four rect primitives between the rounded corners*
20,1,$1+$1,$2,$3,$4,$5,0*
20,1,$1+$1,$4,$5,$6,$7,0*
20,1,$1+$1,$6,$7,$8,$9,0*
20,1,$1+$1,$8,$9,$2,$3,0*%
G04 Aperture macros list end*
%TA.AperFunction,ComponentPad*%
%ADD10O,2.720000X3.240000*%
%TD*%
%TA.AperFunction,ComponentPad*%
%ADD11R,1.800000X1.800000*%
%TD*%
%TA.AperFunction,ComponentPad*%
%ADD12C,1.800000*%
%TD*%
%TA.AperFunction,ComponentPad*%
%ADD13O,3.100000X2.100000*%
%TD*%
%TA.AperFunction,ComponentPad*%
%ADD14RoundRect,0.650000X-0.650000X-0.650000X0.650000X-0.650000X0.650000X0.650000X-0.650000X0.650000X0*%
%TD*%
%TA.AperFunction,ComponentPad*%
%ADD15R,1.200000X1.200000*%
%TD*%
%TA.AperFunction,ComponentPad*%
%ADD16C,1.200000*%
%TD*%
%TA.AperFunction,ComponentPad*%
%ADD17C,1.600000*%
%TD*%
%TA.AperFunction,ComponentPad*%
%ADD18C,1.400000*%
%TD*%
%TA.AperFunction,ComponentPad*%
%ADD19O,1.400000X1.400000*%
%TD*%
%TA.AperFunction,ComponentPad*%
%ADD20RoundRect,0.250000X0.600000X-0.600000X0.600000X0.600000X-0.600000X0.600000X-0.600000X-0.600000X0*%
%TD*%
%TA.AperFunction,ComponentPad*%
%ADD21C,1.700000*%
%TD*%
%TA.AperFunction,ComponentPad*%
%ADD22R,2.200000X2.200000*%
%TD*%
%TA.AperFunction,ComponentPad*%
%ADD23O,2.200000X2.200000*%
%TD*%
%TA.AperFunction,ComponentPad*%
%ADD24R,1.600000X1.600000*%
%TD*%
%TA.AperFunction,ComponentPad*%
%ADD25O,1.600000X1.600000*%
%TD*%
%TA.AperFunction,ComponentPad*%
%ADD26C,1.440000*%
%TD*%
%TA.AperFunction,ComponentPad*%
%ADD27R,1.050000X1.500000*%
%TD*%
%TA.AperFunction,ComponentPad*%
%ADD28O,1.050000X1.500000*%
%TD*%
%TA.AperFunction,ComponentPad*%
%ADD29R,1.500000X1.050000*%
%TD*%
%TA.AperFunction,ComponentPad*%
%ADD30O,1.500000X1.050000*%
%TD*%
%TA.AperFunction,ViaPad*%
%ADD31C,0.800000*%
%TD*%
%TA.AperFunction,Conductor*%
%ADD32C,0.500000*%
%TD*%
%TA.AperFunction,Conductor*%
%ADD33C,0.250000*%
%TD*%
G04 APERTURE END LIST*
D10*
%TO.P,RV10,*%
%TO.N,*%
X51800000Y-72125000D03*
X61400000Y-72125000D03*
D11*
%TO.P,RV10,1,1*%
%TO.N,Net-(R29-Pad1)*%
X54100000Y-79625000D03*
D12*
%TO.P,RV10,2,2*%
%TO.N,Net-(RV10-Pad2)*%
X56600000Y-79625000D03*
%TO.P,RV10,3,3*%
%TO.N,Net-(R32-Pad1)*%
X59100000Y-79625000D03*
%TD*%
D13*
%TO.P,J2,S*%
%TO.N,GND*%
X81000000Y-125615000D03*
D14*
%TO.P,J2,T*%
%TO.N,Net-(J2-PadT)*%
X81000000Y-114215000D03*
%TO.P,J2,TN*%
%TO.N,unconnected-(J2-PadTN)*%
X81000000Y-122515000D03*
%TD*%
D10*
%TO.P,RV4,*%
%TO.N,*%
X61400000Y-41125000D03*
X51800000Y-41125000D03*
D11*
%TO.P,RV4,1,1*%
%TO.N,Net-(R3-Pad2)*%
X54100000Y-48625000D03*
D12*
%TO.P,RV4,2,2*%
%TO.N,Net-(R9-Pad2)*%
X56600000Y-48625000D03*
%TO.P,RV4,3,3*%
%TO.N,Net-(R4-Pad1)*%
X59100000Y-48625000D03*
%TD*%
D10*
%TO.P,RV1,*%
%TO.N,*%
X90100000Y-56625000D03*
X99700000Y-56625000D03*
D11*
%TO.P,RV1,1,1*%
%TO.N,GND*%
X92400000Y-64125000D03*
D12*
%TO.P,RV1,2,2*%
%TO.N,Net-(R5-Pad2)*%
X94900000Y-64125000D03*
%TO.P,RV1,3,3*%
%TO.N,-12V*%
X97400000Y-64125000D03*
%TD*%
D10*
%TO.P,RV8,*%
%TO.N,*%
X40600000Y-98525000D03*
X50200000Y-98525000D03*
D11*
%TO.P,RV8,1,1*%
%TO.N,+12V*%
X42900000Y-106025000D03*
D12*
%TO.P,RV8,2,2*%
%TO.N,Net-(R18-Pad2)*%
X45400000Y-106025000D03*
%TO.P,RV8,3,3*%
%TO.N,-12V*%
X47900000Y-106025000D03*
%TD*%
D13*
%TO.P,J6,S*%
%TO.N,GND*%
X96600000Y-125615000D03*
D14*
%TO.P,J6,T*%
%TO.N,Net-(J6-PadT)*%
X96600000Y-114215000D03*
%TO.P,J6,TN*%
%TO.N,unconnected-(J6-PadTN)*%
X96600000Y-122515000D03*
%TD*%
D15*
%TO.P,C8,1*%
%TO.N,GND*%
X76577401Y-28600000D03*
D16*
%TO.P,C8,2*%
%TO.N,-12V*%
X78577401Y-28600000D03*
%TD*%
D13*
%TO.P,J1,S*%
%TO.N,GND*%
X112200000Y-125615000D03*
D14*
%TO.P,J1,T*%
%TO.N,Net-(J1-PadT)*%
X112200000Y-114215000D03*
%TO.P,J1,TN*%
%TO.N,unconnected-(J1-PadTN)*%
X112200000Y-122515000D03*
%TD*%
D17*
%TO.P,C11,1*%
%TO.N,-12V*%
X83500000Y-92800000D03*
%TO.P,C11,2*%
%TO.N,GND*%
X78500000Y-92800000D03*
%TD*%
D10*
%TO.P,RV3,*%
%TO.N,*%
X51800000Y-56625000D03*
X61400000Y-56625000D03*
D11*
%TO.P,RV3,1,1*%
%TO.N,GND*%
X54100000Y-64125000D03*
D12*
%TO.P,RV3,2,2*%
%TO.N,Net-(R8-Pad2)*%
X56600000Y-64125000D03*
%TO.P,RV3,3,3*%
%TO.N,-12V*%
X59100000Y-64125000D03*
%TD*%
D17*
%TO.P,C10,1*%
%TO.N,+12V*%
X83500000Y-108250000D03*
%TO.P,C10,2*%
%TO.N,GND*%
X78500000Y-108250000D03*
%TD*%
%TO.P,C9,1*%
%TO.N,-12V*%
X96850000Y-93550000D03*
%TO.P,C9,2*%
%TO.N,GND*%
X96850000Y-98550000D03*
%TD*%
%TO.P,C6,1*%
%TO.N,+12V*%
X114200000Y-93800000D03*
%TO.P,C6,2*%
%TO.N,GND*%
X114200000Y-98800000D03*
%TD*%
D13*
%TO.P,J4,S*%
%TO.N,GND*%
X65400000Y-125615000D03*
D14*
%TO.P,J4,T*%
%TO.N,Net-(J4-PadT)*%
X65400000Y-114215000D03*
%TO.P,J4,TN*%
%TO.N,unconnected-(J4-PadTN)*%
X65400000Y-122515000D03*
%TD*%
D10*
%TO.P,RV2,*%
%TO.N,*%
X90100000Y-41125000D03*
X99700000Y-41125000D03*
D11*
%TO.P,RV2,1,1*%
%TO.N,Net-(R1-Pad2)*%
X92400000Y-48625000D03*
D12*
%TO.P,RV2,2,2*%
%TO.N,Net-(R6-Pad2)*%
X94900000Y-48625000D03*
%TO.P,RV2,3,3*%
%TO.N,Net-(R2-Pad1)*%
X97400000Y-48625000D03*
%TD*%
D10*
%TO.P,RV11,*%
%TO.N,*%
X90100000Y-72125000D03*
X99700000Y-72125000D03*
D11*
%TO.P,RV11,1,1*%
%TO.N,Net-(R28-Pad1)*%
X92400000Y-79625000D03*
D12*
%TO.P,RV11,2,2*%
%TO.N,Net-(RV11-Pad2)*%
X94900000Y-79625000D03*
%TO.P,RV11,3,3*%
%TO.N,Net-(R39-Pad1)*%
X97400000Y-79625000D03*
%TD*%
D15*
%TO.P,C7,1*%
%TO.N,+12V*%
X78600000Y-22700000D03*
D16*
%TO.P,C7,2*%
%TO.N,GND*%
X76600000Y-22700000D03*
%TD*%
D13*
%TO.P,J3,S*%
%TO.N,GND*%
X45400000Y-125615000D03*
D14*
%TO.P,J3,T*%
%TO.N,Net-(J3-PadT)*%
X45400000Y-114215000D03*
%TO.P,J3,TN*%
%TO.N,unconnected-(J3-PadTN)*%
X45400000Y-122515000D03*
%TD*%
D18*
%TO.P,R1,1*%
%TO.N,+12V*%
X104000000Y-33990000D03*
D19*
%TO.P,R1,2*%
%TO.N,Net-(R1-Pad2)*%
X104000000Y-41610000D03*
%TD*%
D17*
%TO.P,C2,1*%
%TO.N,Net-(C2-Pad1)*%
X62740000Y-26250000D03*
%TO.P,C2,2*%
%TO.N,GND*%
X67740000Y-26250000D03*
%TD*%
D18*
%TO.P,R33,1*%
%TO.N,Net-(D4-Pad2)*%
X94290000Y-105400000D03*
D19*
%TO.P,R33,2*%
%TO.N,Net-(R31-Pad1)*%
X101910000Y-105400000D03*
%TD*%
D18*
%TO.P,R12,1*%
%TO.N,Net-(Q2-Pad2)*%
X45100000Y-33760000D03*
D19*
%TO.P,R12,2*%
%TO.N,Net-(R12-Pad2)*%
X45100000Y-26140000D03*
%TD*%
D18*
%TO.P,R30,1*%
%TO.N,Net-(D3-Pad2)*%
X79990000Y-78250000D03*
D19*
%TO.P,R30,2*%
%TO.N,Net-(R24-Pad1)*%
X87610000Y-78250000D03*
%TD*%
D18*
%TO.P,R28,1*%
%TO.N,Net-(R28-Pad1)*%
X112900000Y-83140000D03*
D19*
%TO.P,R28,2*%
%TO.N,Net-(R22-Pad1)*%
X112900000Y-90760000D03*
%TD*%
D18*
%TO.P,R20,1*%
%TO.N,Net-(R20-Pad1)*%
X117060000Y-105250000D03*
D19*
%TO.P,R20,2*%
%TO.N,GND*%
X109440000Y-105250000D03*
%TD*%
D17*
%TO.P,C16,1*%
%TO.N,+12V*%
X52150000Y-93900000D03*
%TO.P,C16,2*%
%TO.N,GND*%
X47150000Y-93900000D03*
%TD*%
%TO.P,C5,1*%
%TO.N,Net-(C5-Pad1)*%
X66500000Y-98250000D03*
%TO.P,C5,2*%
%TO.N,Net-(C5-Pad2)*%
X66500000Y-103250000D03*
%TD*%
D18*
%TO.P,R26,1*%
%TO.N,Net-(R24-Pad1)*%
X119000000Y-75790000D03*
D19*
%TO.P,R26,2*%
%TO.N,Net-(R26-Pad2)*%
X119000000Y-68170000D03*
%TD*%
D20*
%TO.P,J5,1,Pin_1*%
%TO.N,Net-(D6-Pad1)*%
X113900000Y-27100000D03*
D21*
%TO.P,J5,2,Pin_2*%
X113900000Y-24560000D03*
%TO.P,J5,3,Pin_3*%
%TO.N,GND*%
X111360000Y-27100000D03*
%TO.P,J5,4,Pin_4*%
X111360000Y-24560000D03*
%TO.P,J5,5,Pin_5*%
X108820000Y-27100000D03*
%TO.P,J5,6,Pin_6*%
X108820000Y-24560000D03*
%TO.P,J5,7,Pin_7*%
X106280000Y-27100000D03*
%TO.P,J5,8,Pin_8*%
X106280000Y-24560000D03*
%TO.P,J5,9,Pin_9*%
%TO.N,Net-(D5-Pad2)*%
X103740000Y-27100000D03*
%TO.P,J5,10,Pin_10*%
X103740000Y-24560000D03*
%TD*%
D18*
%TO.P,R5,1*%
%TO.N,Net-(R5-Pad1)*%
X115410000Y-45300000D03*
D19*
%TO.P,R5,2*%
%TO.N,Net-(R5-Pad2)*%
X107790000Y-45300000D03*
%TD*%
D22*
%TO.P,D6,1,K*%
%TO.N,Net-(D6-Pad1)*%
X94180000Y-28600000D03*
D23*
%TO.P,D6,2,A*%
%TO.N,-12V*%
X84020000Y-28600000D03*
%TD*%
D18*
%TO.P,R31,1*%
%TO.N,Net-(R31-Pad1)*%
X86240000Y-94200000D03*
D19*
%TO.P,R31,2*%
%TO.N,Net-(D3-Pad2)*%
X93860000Y-94200000D03*
%TD*%
D18*
%TO.P,R8,1*%
%TO.N,Net-(R8-Pad1)*%
X41700000Y-45950000D03*
D19*
%TO.P,R8,2*%
%TO.N,Net-(R8-Pad2)*%
X41700000Y-53570000D03*
%TD*%
D24*
%TO.P,D4,1,K*%
%TO.N,Net-(C5-Pad2)*%
X86240000Y-89450000D03*
D25*
%TO.P,D4,2,A*%
%TO.N,Net-(D4-Pad2)*%
X93860000Y-89450000D03*
%TD*%
D18*
%TO.P,R6,1*%
%TO.N,Net-(R6-Pad1)*%
X111150000Y-33990000D03*
D19*
%TO.P,R6,2*%
%TO.N,Net-(R6-Pad2)*%
X111150000Y-41610000D03*
%TD*%
D18*
%TO.P,R4,1*%
%TO.N,Net-(R4-Pad1)*%
X58360000Y-34300000D03*
D19*
%TO.P,R4,2*%
%TO.N,-12V*%
X50740000Y-34300000D03*
%TD*%
D18*
%TO.P,R25,1*%
%TO.N,Net-(R25-Pad1)*%
X80050000Y-46560000D03*
D19*
%TO.P,R25,2*%
%TO.N,Net-(R25-Pad2)*%
X80050000Y-38940000D03*
%TD*%
D18*
%TO.P,TH3,1*%
%TO.N,Net-(Q1-Pad2)*%
X118800000Y-39430000D03*
D19*
%TO.P,TH3,2*%
%TO.N,Net-(R7-Pad1)*%
X118800000Y-41970000D03*
%TD*%
D18*
%TO.P,R21,1*%
%TO.N,Net-(R21-Pad1)*%
X36800000Y-69960000D03*
D19*
%TO.P,R21,2*%
%TO.N,GND*%
X36800000Y-62340000D03*
%TD*%
D26*
%TO.P,RV5,1,1*%
%TO.N,Net-(R11-Pad2)*%
X112025000Y-55450000D03*
%TO.P,RV5,2,2*%
%TO.N,GND*%
X114565000Y-52910000D03*
%TO.P,RV5,3,3*%
X112025000Y-50370000D03*
%TD*%
D18*
%TO.P,R19,1*%
%TO.N,Net-(R15-Pad1)*%
X34340000Y-89400000D03*
D19*
%TO.P,R19,2*%
%TO.N,GND*%
X41960000Y-89400000D03*
%TD*%
D18*
%TO.P,R2,1*%
%TO.N,Net-(R2-Pad1)*%
X107100000Y-41660000D03*
D19*
%TO.P,R2,2*%
%TO.N,-12V*%
X107100000Y-34040000D03*
%TD*%
D26*
%TO.P,RV9,1,1*%
%TO.N,-12V*%
X115675000Y-62450000D03*
%TO.P,RV9,2,2*%
%TO.N,Net-(R26-Pad2)*%
X113135000Y-64990000D03*
%TO.P,RV9,3,3*%
%TO.N,GND*%
X115675000Y-67530000D03*
%TD*%
D18*
%TO.P,R22,1*%
%TO.N,Net-(R22-Pad1)*%
X117200000Y-92840000D03*
D19*
%TO.P,R22,2*%
%TO.N,Net-(R20-Pad1)*%
X117200000Y-100460000D03*
%TD*%
D18*
%TO.P,R35,1*%
%TO.N,Net-(C5-Pad2)*%
X66510000Y-106050000D03*
D19*
%TO.P,R35,2*%
%TO.N,-12V*%
X58890000Y-106050000D03*
%TD*%
D18*
%TO.P,R17,1*%
%TO.N,Net-(C4-Pad1)*%
X41300000Y-70010000D03*
D19*
%TO.P,R17,2*%
%TO.N,GND*%
X41300000Y-62390000D03*
%TD*%
D18*
%TO.P,TH5,1*%
%TO.N,Net-(Q2-Pad2)*%
X43710000Y-36900000D03*
D19*
%TO.P,TH5,2*%
%TO.N,Net-(R9-Pad1)*%
X46250000Y-36900000D03*
%TD*%
D24*
%TO.P,U3,1*%
%TO.N,Net-(C4-Pad2)*%
X67700000Y-54175000D03*
D25*
%TO.P,U3,2,-*%
X67700000Y-51635000D03*
%TO.P,U3,3,+*%
%TO.N,Net-(C2-Pad1)*%
X67700000Y-49095000D03*
%TO.P,U3,4,V+*%
%TO.N,+12V*%
X67700000Y-46555000D03*
%TO.P,U3,5,+*%
%TO.N,Net-(C4-Pad1)*%
X67700000Y-44015000D03*
%TO.P,U3,6,-*%
%TO.N,Net-(R21-Pad1)*%
X67700000Y-41475000D03*
%TO.P,U3,7*%
%TO.N,Net-(R23-Pad1)*%
X67700000Y-38935000D03*
%TO.P,U3,8*%
%TO.N,Net-(R25-Pad2)*%
X75320000Y-38935000D03*
%TO.P,U3,9,-*%
%TO.N,Net-(R15-Pad1)*%
X75320000Y-41475000D03*
%TO.P,U3,10,+*%
%TO.N,Net-(C4-Pad1)*%
X75320000Y-44015000D03*
%TO.P,U3,11,V-*%
%TO.N,-12V*%
X75320000Y-46555000D03*
%TO.P,U3,12,+*%
%TO.N,Net-(R25-Pad1)*%
X75320000Y-49095000D03*
%TO.P,U3,13,-*%
%TO.N,Net-(R32-Pad2)*%
X75320000Y-51635000D03*
%TO.P,U3,14*%
X75320000Y-54175000D03*
%TD*%
D17*
%TO.P,C4,1*%
%TO.N,Net-(C4-Pad1)*%
X36500000Y-77500000D03*
%TO.P,C4,2*%
%TO.N,Net-(C4-Pad2)*%
X41500000Y-77500000D03*
%TD*%
D18*
%TO.P,R36,1*%
%TO.N,Net-(C5-Pad1)*%
X71000000Y-98240000D03*
D19*
%TO.P,R36,2*%
%TO.N,GND*%
X71000000Y-105860000D03*
%TD*%
D24*
%TO.P,D2,1,K*%
%TO.N,Net-(C2-Pad1)*%
X62740000Y-29950000D03*
D25*
%TO.P,D2,2,A*%
%TO.N,Net-(D2-Pad2)*%
X70360000Y-29950000D03*
%TD*%
D18*
%TO.P,R16,1*%
%TO.N,Net-(C3-Pad1)*%
X112100000Y-79160000D03*
D19*
%TO.P,R16,2*%
%TO.N,GND*%
X112100000Y-71540000D03*
%TD*%
D24*
%TO.P,D3,1,K*%
%TO.N,Net-(C5-Pad2)*%
X82200000Y-89360000D03*
D25*
%TO.P,D3,2,A*%
%TO.N,Net-(D3-Pad2)*%
X82200000Y-81740000D03*
%TD*%
D18*
%TO.P,R14,1*%
%TO.N,+12V*%
X71510000Y-22550000D03*
D19*
%TO.P,R14,2*%
%TO.N,Net-(Q2-Pad3)*%
X63890000Y-22550000D03*
%TD*%
D17*
%TO.P,C15,1*%
%TO.N,-12V*%
X75000000Y-33350000D03*
%TO.P,C15,2*%
%TO.N,GND*%
X70000000Y-33350000D03*
%TD*%
D18*
%TO.P,R32,1*%
%TO.N,Net-(R32-Pad1)*%
X65450000Y-79710000D03*
D19*
%TO.P,R32,2*%
%TO.N,Net-(R32-Pad2)*%
X65450000Y-72090000D03*
%TD*%
D27*
%TO.P,Q3,1,C*%
%TO.N,Net-(C1-Pad1)*%
X105830000Y-66940000D03*
D28*
%TO.P,Q3,2,B*%
%TO.N,Net-(Q1-Pad3)*%
X107100000Y-66940000D03*
%TO.P,Q3,3,E*%
%TO.N,GND*%
X108370000Y-66940000D03*
%TD*%
D18*
%TO.P,R18,1*%
%TO.N,Net-(R15-Pad1)*%
X36640000Y-57800000D03*
D19*
%TO.P,R18,2*%
%TO.N,Net-(R18-Pad2)*%
X44260000Y-57800000D03*
%TD*%
D18*
%TO.P,R24,1*%
%TO.N,Net-(R24-Pad1)*%
X115300000Y-71600000D03*
D19*
%TO.P,R24,2*%
%TO.N,Net-(R24-Pad2)*%
X115300000Y-79220000D03*
%TD*%
D18*
%TO.P,TH6,1*%
%TO.N,Net-(Q2-Pad2)*%
X37700000Y-40480000D03*
D19*
%TO.P,TH6,2*%
%TO.N,Net-(R10-Pad1)*%
X37700000Y-43020000D03*
%TD*%
D18*
%TO.P,R15,1*%
%TO.N,Net-(R15-Pad1)*%
X34400000Y-94740000D03*
D19*
%TO.P,R15,2*%
%TO.N,Net-(R15-Pad2)*%
X34400000Y-102360000D03*
%TD*%
D18*
%TO.P,R40,1*%
%TO.N,Net-(J6-PadT)*%
X96650000Y-110500000D03*
D19*
%TO.P,R40,2*%
%TO.N,Net-(R40-Pad2)*%
X89030000Y-110500000D03*
%TD*%
D24*
%TO.P,U2,1*%
%TO.N,N/C*%
X55350000Y-86300000D03*
D25*
%TO.P,U2,2*%
X57890000Y-86300000D03*
%TO.P,U2,3*%
%TO.N,Net-(C2-Pad1)*%
X60430000Y-86300000D03*
%TO.P,U2,4*%
%TO.N,Net-(D2-Pad2)*%
X62970000Y-86300000D03*
%TO.P,U2,5*%
%TO.N,Net-(C1-Pad1)*%
X65510000Y-86300000D03*
%TO.P,U2,6*%
%TO.N,Net-(D1-Pad2)*%
X68050000Y-86300000D03*
%TO.P,U2,7,VSS*%
%TO.N,GND*%
X70590000Y-86300000D03*
%TO.P,U2,8*%
%TO.N,N/C*%
X70590000Y-93920000D03*
%TO.P,U2,9*%
X68050000Y-93920000D03*
%TO.P,U2,10*%
X65510000Y-93920000D03*
%TO.P,U2,11*%
X62970000Y-93920000D03*
%TO.P,U2,12*%
X60430000Y-93920000D03*
%TO.P,U2,13*%
X57890000Y-93920000D03*
%TO.P,U2,14,VDD*%
%TO.N,+12V*%
X55350000Y-93920000D03*
%TD*%
D18*
%TO.P,R3,1*%
%TO.N,+12V*%
X58060000Y-30400000D03*
D19*
%TO.P,R3,2*%
%TO.N,Net-(R3-Pad2)*%
X50440000Y-30400000D03*
%TD*%
D18*
%TO.P,R37,1*%
%TO.N,Net-(R37-Pad1)*%
X84900000Y-67960000D03*
D19*
%TO.P,R37,2*%
%TO.N,GND*%
X84900000Y-60340000D03*
%TD*%
D18*
%TO.P,TH2,1*%
%TO.N,Net-(Q1-Pad2)*%
X115300000Y-36520000D03*
D19*
%TO.P,TH2,2*%
%TO.N,Net-(R6-Pad1)*%
X115300000Y-33980000D03*
%TD*%
D18*
%TO.P,R39,1*%
%TO.N,Net-(R39-Pad1)*%
X80910000Y-60450000D03*
D19*
%TO.P,R39,2*%
%TO.N,Net-(R38-Pad1)*%
X73290000Y-60450000D03*
%TD*%
D27*
%TO.P,Q1,1,C*%
%TO.N,-12V*%
X105780000Y-61800000D03*
D28*
%TO.P,Q1,2,B*%
%TO.N,Net-(Q1-Pad2)*%
X107050000Y-61800000D03*
%TO.P,Q1,3,E*%
%TO.N,Net-(Q1-Pad3)*%
X108320000Y-61800000D03*
%TD*%
D18*
%TO.P,R38,1*%
%TO.N,Net-(R38-Pad1)*%
X73290000Y-64300000D03*
D19*
%TO.P,R38,2*%
%TO.N,Net-(R37-Pad1)*%
X80910000Y-64300000D03*
%TD*%
D18*
%TO.P,R34,1*%
%TO.N,Net-(J4-PadT)*%
X65590000Y-110050000D03*
D19*
%TO.P,R34,2*%
%TO.N,Net-(R34-Pad2)*%
X73210000Y-110050000D03*
%TD*%
D26*
%TO.P,RV6,1,1*%
%TO.N,Net-(R12-Pad2)*%
X38775000Y-27100000D03*
%TO.P,RV6,2,2*%
%TO.N,GND*%
X36235000Y-29640000D03*
%TO.P,RV6,3,3*%
X38775000Y-32180000D03*
%TD*%
D18*
%TO.P,R7,1*%
%TO.N,Net-(R7-Pad1)*%
X118800000Y-46590000D03*
D19*
%TO.P,R7,2*%
%TO.N,Net-(J1-PadT)*%
X118800000Y-54210000D03*
%TD*%
D24*
%TO.P,U1,1*%
%TO.N,Net-(C3-Pad2)*%
X108950000Y-85425000D03*
D25*
%TO.P,U1,2,-*%
X108950000Y-87965000D03*
%TO.P,U1,3,+*%
%TO.N,Net-(C1-Pad1)*%
X108950000Y-90505000D03*
%TO.P,U1,4,V+*%
%TO.N,+12V*%
X108950000Y-93045000D03*
%TO.P,U1,5,+*%
%TO.N,Net-(C3-Pad1)*%
X108950000Y-95585000D03*
%TO.P,U1,6,-*%
%TO.N,Net-(R20-Pad1)*%
X108950000Y-98125000D03*
%TO.P,U1,7*%
%TO.N,Net-(R22-Pad1)*%
X108950000Y-100665000D03*
%TO.P,U1,8*%
%TO.N,Net-(R24-Pad2)*%
X101330000Y-100665000D03*
%TO.P,U1,9,-*%
X101330000Y-98125000D03*
%TO.P,U1,10,+*%
%TO.N,Net-(C1-Pad1)*%
X101330000Y-95585000D03*
%TO.P,U1,11,V-*%
%TO.N,-12V*%
X101330000Y-93045000D03*
%TO.P,U1,12,+*%
%TO.N,GND*%
X101330000Y-90505000D03*
%TO.P,U1,13,-*%
%TO.N,Net-(R24-Pad1)*%
X101330000Y-87965000D03*
%TO.P,U1,14*%
%TO.N,Net-(D3-Pad2)*%
X101330000Y-85425000D03*
%TD*%
D18*
%TO.P,R9,1*%
%TO.N,Net-(R9-Pad1)*%
X46250000Y-40840000D03*
D19*
%TO.P,R9,2*%
%TO.N,Net-(R9-Pad2)*%
X46250000Y-48460000D03*
%TD*%
D17*
%TO.P,C14,1*%
%TO.N,+12V*%
X78850000Y-33350000D03*
%TO.P,C14,2*%
%TO.N,GND*%
X83850000Y-33350000D03*
%TD*%
D18*
%TO.P,R11,1*%
%TO.N,Net-(Q1-Pad2)*%
X107600000Y-48990000D03*
D19*
%TO.P,R11,2*%
%TO.N,Net-(R11-Pad2)*%
X107600000Y-56610000D03*
%TD*%
D17*
%TO.P,C1,1*%
%TO.N,Net-(C1-Pad1)*%
X104450000Y-71800000D03*
%TO.P,C1,2*%
%TO.N,GND*%
X109450000Y-71800000D03*
%TD*%
D18*
%TO.P,R13,1*%
%TO.N,+12V*%
X83400000Y-49840000D03*
D19*
%TO.P,R13,2*%
%TO.N,Net-(Q1-Pad3)*%
X83400000Y-57460000D03*
%TD*%
D24*
%TO.P,U4,1*%
%TO.N,Net-(R34-Pad2)*%
X91125000Y-105200000D03*
D25*
%TO.P,U4,2,-*%
X88585000Y-105200000D03*
%TO.P,U4,3,+*%
%TO.N,Net-(RV10-Pad2)*%
X86045000Y-105200000D03*
%TO.P,U4,4,V+*%
%TO.N,+12V*%
X83505000Y-105200000D03*
%TO.P,U4,5,+*%
%TO.N,Net-(RV11-Pad2)*%
X80965000Y-105200000D03*
%TO.P,U4,6,-*%
%TO.N,Net-(R40-Pad2)*%
X78425000Y-105200000D03*
%TO.P,U4,7*%
X75885000Y-105200000D03*
%TO.P,U4,8*%
%TO.N,Net-(D4-Pad2)*%
X75885000Y-97580000D03*
%TO.P,U4,9,-*%
%TO.N,Net-(R31-Pad1)*%
X78425000Y-97580000D03*
%TO.P,U4,10,+*%
%TO.N,GND*%
X80965000Y-97580000D03*
%TO.P,U4,11,V-*%
%TO.N,-12V*%
X83505000Y-97580000D03*
%TO.P,U4,12,+*%
%TO.N,Net-(C5-Pad1)*%
X86045000Y-97580000D03*
%TO.P,U4,13,-*%
%TO.N,Net-(R37-Pad1)*%
X88585000Y-97580000D03*
%TO.P,U4,14*%
%TO.N,Net-(R38-Pad1)*%
X91125000Y-97580000D03*
%TD*%
D18*
%TO.P,R29,1*%
%TO.N,Net-(R29-Pad1)*%
X54210000Y-82600000D03*
D19*
%TO.P,R29,2*%
%TO.N,Net-(R23-Pad1)*%
X46590000Y-82600000D03*
%TD*%
D18*
%TO.P,TH4,1*%
%TO.N,Net-(Q2-Pad2)*%
X41700000Y-40480000D03*
D19*
%TO.P,TH4,2*%
%TO.N,Net-(R8-Pad1)*%
X41700000Y-43020000D03*
%TD*%
D18*
%TO.P,R10,1*%
%TO.N,Net-(R10-Pad1)*%
X37700000Y-46090000D03*
D19*
%TO.P,R10,2*%
%TO.N,Net-(J2-PadT)*%
X37700000Y-53710000D03*
%TD*%
D17*
%TO.P,C3,1*%
%TO.N,Net-(C3-Pad1)*%
X105450000Y-80150000D03*
%TO.P,C3,2*%
%TO.N,Net-(C3-Pad2)*%
X105450000Y-75150000D03*
%TD*%
D18*
%TO.P,TH1,1*%
%TO.N,Net-(Q1-Pad2)*%
X115300000Y-39430000D03*
D19*
%TO.P,TH1,2*%
%TO.N,Net-(R5-Pad1)*%
X115300000Y-41970000D03*
%TD*%
D22*
%TO.P,D5,1,K*%
%TO.N,+12V*%
X84020000Y-22700000D03*
D23*
%TO.P,D5,2,A*%
%TO.N,Net-(D5-Pad2)*%
X94180000Y-22700000D03*
%TD*%
D29*
%TO.P,Q2,1,C*%
%TO.N,-12V*%
X51750000Y-25340000D03*
D30*
%TO.P,Q2,2,B*%
%TO.N,Net-(Q2-Pad2)*%
X51750000Y-24070000D03*
%TO.P,Q2,3,E*%
%TO.N,Net-(Q2-Pad3)*%
X51750000Y-22800000D03*
%TD*%
D18*
%TO.P,R23,1*%
%TO.N,Net-(R23-Pad1)*%
X46600000Y-79560000D03*
D19*
%TO.P,R23,2*%
%TO.N,Net-(R21-Pad1)*%
X46600000Y-71940000D03*
%TD*%
D29*
%TO.P,Q4,1,C*%
%TO.N,Net-(C2-Pad1)*%
X56950000Y-25350000D03*
D30*
%TO.P,Q4,2,B*%
%TO.N,Net-(Q2-Pad3)*%
X56950000Y-24080000D03*
%TO.P,Q4,3,E*%
%TO.N,GND*%
X56950000Y-22810000D03*
%TD*%
D18*
%TO.P,R27,1*%
%TO.N,Net-(R25-Pad1)*%
X83600000Y-46460000D03*
D19*
%TO.P,R27,2*%
%TO.N,GND*%
X83600000Y-38840000D03*
%TD*%
D26*
%TO.P,RV7,1,1*%
%TO.N,Net-(R15-Pad2)*%
X35925000Y-111500000D03*
%TO.P,RV7,2,2*%
X33385000Y-114040000D03*
%TO.P,RV7,3,3*%
%TO.N,Net-(J3-PadT)*%
X35925000Y-116580000D03*
%TD*%
D24*
%TO.P,D1,1,K*%
%TO.N,Net-(C1-Pad1)*%
X70040000Y-82050000D03*
D25*
%TO.P,D1,2,A*%
%TO.N,Net-(D1-Pad2)*%
X77660000Y-82050000D03*
%TD*%
D31*
%TO.N,Net-(C1-Pad1)*%
X98400000Y-90800000D03*
X99300000Y-81800000D03*
X95300000Y-85550000D03*
%TO.N,GND*%
X103500000Y-97200000D03*
X88350000Y-100150000D03*
%TO.N,Net-(C4-Pad1)*%
X70700000Y-44050000D03*
X45500000Y-65800000D03*
X49350000Y-62350000D03*
%TO.N,Net-(C5-Pad2)*%
X72600000Y-89850000D03*
%TO.N,+12V*%
X105250000Y-108150000D03*
%TO.N,-12V*%
X61650000Y-96550000D03*
X58200000Y-20700000D03*
X102250000Y-62660000D03*
%TO.N,Net-(D2-Pad2)*%
X72750000Y-40700000D03*
X72750000Y-50450000D03*
X70450000Y-38550000D03*
%TO.N,Net-(D3-Pad2)*%
X88600000Y-86250000D03*
X96900000Y-89850000D03*
X85700000Y-83350000D03*
%TO.N,Net-(R23-Pad1)*%
X53050000Y-69000000D03*
X69850000Y-61700000D03*
X66850000Y-69000000D03*
%TO.N,Net-(R24-Pad2)*%
X104900000Y-90150000D03*
X107750000Y-81450000D03*
%TO.N,Net-(R37-Pad1)*%
X83700000Y-78300000D03*
%TO.N,Net-(RV11-Pad2)*%
X84900000Y-103300000D03*
%TD*%
D32*
%TO.N,-12V*%
X104920000Y-62660000D02*
X102250000Y-62660000D01*
X105780000Y-61800000D02*
X104920000Y-62660000D01*
X103250000Y-49050000D02*
X103250000Y-59100000D01*
X108900000Y-47200000D02*
X105100000Y-47200000D01*
X105100000Y-47200000D02*
X103250000Y-49050000D01*
X105780000Y-61630000D02*
X105780000Y-61800000D01*
X109400000Y-46700000D02*
X108900000Y-47200000D01*
X109400000Y-36340000D02*
X109400000Y-46700000D01*
X103250000Y-59100000D02*
X105780000Y-61630000D01*
X107100000Y-34040000D02*
X109400000Y-36340000D01*
D33*
%TO.N,Net-(Q1-Pad2)*%
X107050000Y-60000000D02*
X107050000Y-61800000D01*
X106110000Y-48990000D02*
X105550000Y-49550000D01*
X107600000Y-48990000D02*
X106110000Y-48990000D01*
X105550000Y-49550000D02*
X105550000Y-58500000D01*
X105550000Y-58500000D02*
X107050000Y-60000000D01*
%TO.N,Net-(C1-Pad1)*%
X104450000Y-71800000D02*
X100150000Y-76100000D01*
X95300000Y-85550000D02*
X92900000Y-85550000D01*
X72000000Y-82050000D02*
X70040000Y-82050000D01*
X91950000Y-84600000D02*
X74550000Y-84600000D01*
X74550000Y-84600000D02*
X72000000Y-82050000D01*
X105830000Y-70420000D02*
X104450000Y-71800000D01*
X95300000Y-85550000D02*
X98400000Y-88650000D01*
X92900000Y-85550000D02*
X91950000Y-84600000D01*
X100150000Y-76100000D02*
X100150000Y-80950000D01*
X98400000Y-88650000D02*
X98400000Y-90800000D01*
X100150000Y-80950000D02*
X99300000Y-81800000D01*
X105830000Y-66940000D02*
X105830000Y-70420000D01*
D32*
%TO.N,GND*%
X103500000Y-97200000D02*
X103500000Y-92675000D01*
X103500000Y-92675000D02*
X101330000Y-90505000D01*
X80965000Y-97580000D02*
X83535000Y-100150000D01*
X83535000Y-100150000D02*
X88350000Y-100150000D01*
D33*
%TO.N,Net-(C2-Pad1)*%
X62740000Y-26250000D02*
X62740000Y-29950000D01*
X62740000Y-31590000D02*
X65500000Y-34350000D01*
X65500000Y-34350000D02*
X65500000Y-46895000D01*
X65500000Y-46895000D02*
X67700000Y-49095000D01*
X61840000Y-25350000D02*
X62740000Y-26250000D01*
X62740000Y-29950000D02*
X62740000Y-31590000D01*
X61840000Y-25350000D02*
X56950000Y-25350000D01*
%TO.N,Net-(C3-Pad1)*%
X105640000Y-79960000D02*
X105450000Y-80150000D01*
X111300000Y-79960000D02*
X105640000Y-79960000D01*
X112100000Y-79160000D02*
X111300000Y-79960000D01*
%TO.N,Net-(C4-Pad1)*%
X67700000Y-44015000D02*
X70665000Y-44015000D01*
X45900000Y-65800000D02*
X45500000Y-65800000D01*
X49350000Y-62350000D02*
X45900000Y-65800000D01*
X36500000Y-74810000D02*
X41300000Y-70010000D01*
X36500000Y-77500000D02*
X36500000Y-74810000D01*
X70665000Y-44015000D02*
X70700000Y-44050000D01*
%TO.N,Net-(C5-Pad1)*%
X70990000Y-98250000D02*
X71000000Y-98240000D01*
%TO.N,Net-(C5-Pad2)*%
X72400000Y-95550000D02*
X72200000Y-95750000D01*
X66510000Y-103260000D02*
X66500000Y-103250000D01*
X69250000Y-95750000D02*
X69000000Y-96000000D01*
X72600000Y-89850000D02*
X72400000Y-90050000D01*
X66500000Y-101000000D02*
X66500000Y-103250000D01*
X69000000Y-96000000D02*
X69000000Y-98500000D01*
X86180000Y-89360000D02*
X86240000Y-89300000D01*
X69000000Y-98500000D02*
X66500000Y-101000000D01*
X66510000Y-106050000D02*
X66510000Y-103260000D01*
X72200000Y-95750000D02*
X69250000Y-95750000D01*
X72400000Y-90050000D02*
X72400000Y-95550000D01*
X82200000Y-89360000D02*
X86180000Y-89360000D01*
D32*
%TO.N,+12V*%
X88250000Y-26750000D02*
X88250000Y-30850000D01*
D33*
X70150000Y-49000000D02*
X70145000Y-49000000D01*
D32*
X105150000Y-108250000D02*
X83500000Y-108250000D01*
X70145000Y-49000000D02*
X67700000Y-46555000D01*
X78850000Y-33350000D02*
X76700000Y-35500000D01*
X52150000Y-93900000D02*
X52150000Y-76350000D01*
X70095000Y-46555000D02*
X67700000Y-46555000D01*
X76700000Y-35500000D02*
X75100000Y-35500000D01*
X73560000Y-20500000D02*
X71510000Y-22550000D01*
X90660000Y-33990000D02*
X88310000Y-33990000D01*
D33*
X52100000Y-93900000D02*
X52120000Y-93920000D01*
D32*
X83505000Y-105200000D02*
X83505000Y-108245000D01*
X84020000Y-22700000D02*
X78600000Y-22700000D01*
X108950000Y-93045000D02*
X108955000Y-93050000D01*
D33*
X52150000Y-93900000D02*
X52100000Y-93900000D01*
D32*
X88250000Y-33900000D02*
X88340000Y-33990000D01*
X86400000Y-35900000D02*
X86400000Y-46840000D01*
X88250000Y-30900000D02*
X88250000Y-33900000D01*
X84200000Y-22700000D02*
X88250000Y-26750000D01*
X54950000Y-73550000D02*
X54950000Y-71650000D01*
X54950000Y-71650000D02*
X70150000Y-56450000D01*
D33*
X84020000Y-22700000D02*
X84200000Y-22700000D01*
X88200000Y-30850000D02*
X88250000Y-30900000D01*
D32*
X77350000Y-20500000D02*
X73560000Y-20500000D01*
X113450000Y-93050000D02*
X114200000Y-93800000D01*
X70150000Y-56450000D02*
X70150000Y-49000000D01*
X71750000Y-38850000D02*
X71750000Y-44900000D01*
D33*
X55630000Y-93920000D02*
X55350000Y-93920000D01*
D32*
X78600000Y-22700000D02*
X78600000Y-21750000D01*
X88340000Y-33990000D02*
X104000000Y-33990000D01*
X75100000Y-35500000D02*
X71750000Y-38850000D01*
X81350000Y-30850000D02*
X78850000Y-33350000D01*
X88310000Y-33990000D02*
X86400000Y-35900000D01*
D33*
X105250000Y-108150000D02*
X105150000Y-108250000D01*
D32*
X88250000Y-30850000D02*
X81350000Y-30850000D01*
D33*
X83505000Y-108245000D02*
X83500000Y-108250000D01*
D32*
X52120000Y-93920000D02*
X55350000Y-93920000D01*
X86400000Y-46840000D02*
X83400000Y-49840000D01*
X71750000Y-44900000D02*
X70095000Y-46555000D01*
X52150000Y-76350000D02*
X54950000Y-73550000D01*
X108955000Y-93050000D02*
X113450000Y-93050000D01*
X78600000Y-21750000D02*
X77350000Y-20500000D01*
D33*
%TO.N,-12V*%
X96100000Y-92800000D02*
X83500000Y-92800000D01*
D32*
X65700000Y-20700000D02*
X58200000Y-20700000D01*
X53450000Y-27050000D02*
X51750000Y-25350000D01*
X78577401Y-29772599D02*
X75000000Y-33350000D01*
X50740000Y-33310000D02*
X53450000Y-30600000D01*
X50740000Y-34300000D02*
X50740000Y-33310000D01*
X61650000Y-96550000D02*
X58890000Y-99310000D01*
X69200000Y-24200000D02*
X65700000Y-20700000D01*
X53450000Y-30600000D02*
X53450000Y-27050000D01*
X78577401Y-28600000D02*
X84020000Y-28600000D01*
X100825000Y-93550000D02*
X96850000Y-93550000D01*
X98865000Y-62660000D02*
X97400000Y-64125000D01*
X59100000Y-64125000D02*
X64200000Y-59025000D01*
X60600000Y-32350000D02*
X55200000Y-32350000D01*
X74177401Y-24200000D02*
X69200000Y-24200000D01*
X55200000Y-32350000D02*
X53450000Y-30600000D01*
X64200000Y-59025000D02*
X64200000Y-35950000D01*
X102250000Y-62660000D02*
X98865000Y-62660000D01*
D33*
X58865000Y-106025000D02*
X58890000Y-106050000D01*
D32*
X47900000Y-106025000D02*
X58865000Y-106025000D01*
X64200000Y-35950000D02*
X60600000Y-32350000D01*
D33*
X101330000Y-93045000D02*
X100825000Y-93550000D01*
D32*
X78577401Y-28600000D02*
X74177401Y-24200000D01*
X58890000Y-99310000D02*
X58890000Y-106050000D01*
X78577401Y-28600000D02*
X78577401Y-29772599D01*
D33*
X83500000Y-97575000D02*
X83505000Y-97580000D01*
X96850000Y-93550000D02*
X96100000Y-92800000D01*
%TO.N,Net-(D2-Pad2)*%
X72750000Y-50450000D02*
X72750000Y-40700000D01*
X72150000Y-31740000D02*
X70360000Y-29950000D01*
X70450000Y-35900000D02*
X72150000Y-34200000D01*
X72150000Y-34200000D02*
X72150000Y-31740000D01*
X70450000Y-38550000D02*
X70450000Y-35900000D01*
%TO.N,Net-(D3-Pad2)*%
X84090000Y-81740000D02*
X85700000Y-83350000D01*
X82200000Y-81740000D02*
X84090000Y-81740000D01*
X96900000Y-89850000D02*
X93700000Y-86650000D01*
X93700000Y-86650000D02*
X89000000Y-86650000D01*
X89000000Y-86650000D02*
X88600000Y-86250000D01*
X79990000Y-78250000D02*
X79990000Y-79530000D01*
X79990000Y-79530000D02*
X82200000Y-81740000D01*
%TO.N,Net-(D4-Pad2)*%
X75885000Y-97580000D02*
X79505000Y-101200000D01*
X91150000Y-101200000D02*
X94290000Y-104340000D01*
X93860000Y-89450000D02*
X92110000Y-91200000D01*
X79505000Y-101200000D02*
X91150000Y-101200000D01*
X94290000Y-104340000D02*
X94290000Y-105400000D01*
X82265000Y-91200000D02*
X75885000Y-97580000D01*
X92110000Y-91200000D02*
X82265000Y-91200000D01*
D32*
%TO.N,Net-(D5-Pad2)*%
X103740000Y-27100000D02*
X103740000Y-24560000D01*
X101880000Y-22700000D02*
X103740000Y-24560000D01*
X94180000Y-22700000D02*
X101880000Y-22700000D01*
%TO.N,Net-(D6-Pad1)*%
X94180000Y-28600000D02*
X98050000Y-28600000D01*
X112600000Y-29850000D02*
X113900000Y-28550000D01*
X98050000Y-28600000D02*
X99300000Y-29850000D01*
X113900000Y-28550000D02*
X113900000Y-27100000D01*
X113900000Y-24560000D02*
X113900000Y-27100000D01*
X99300000Y-29850000D02*
X112600000Y-29850000D01*
D33*
%TO.N,Net-(Q1-Pad2)*%
X115300000Y-39430000D02*
X118800000Y-39430000D01*
X115300000Y-36520000D02*
X115300000Y-39430000D01*
X108710000Y-48990000D02*
X107600000Y-48990000D01*
X115300000Y-39430000D02*
X113200000Y-41530000D01*
X113200000Y-44500000D02*
X108710000Y-48990000D01*
X113200000Y-41530000D02*
X113200000Y-44500000D01*
%TO.N,Net-(Q2-Pad3)*%
X62360000Y-24080000D02*
X63890000Y-22550000D01*
X54880000Y-24080000D02*
X56950000Y-24080000D01*
X53610000Y-22810000D02*
X54880000Y-24080000D01*
X51750000Y-22810000D02*
X53610000Y-22810000D01*
X56950000Y-24080000D02*
X62360000Y-24080000D01*
%TO.N,Net-(Q2-Pad2)*%
X51750000Y-24080000D02*
X50420000Y-24080000D01*
X45100000Y-35510000D02*
X43710000Y-36900000D01*
X43710000Y-38470000D02*
X41700000Y-40480000D01*
X45100000Y-29400000D02*
X45100000Y-33760000D01*
X37700000Y-40480000D02*
X41700000Y-40480000D01*
X43710000Y-36900000D02*
X43710000Y-38470000D01*
X50420000Y-24080000D02*
X45100000Y-29400000D01*
X45100000Y-33760000D02*
X45100000Y-35510000D01*
%TO.N,Net-(R1-Pad2)*%
X100760000Y-44850000D02*
X94750000Y-44850000D01*
X104000000Y-41610000D02*
X100760000Y-44850000D01*
X92400000Y-47200000D02*
X92400000Y-48625000D01*
X94750000Y-44850000D02*
X92400000Y-47200000D01*
%TO.N,Net-(R2-Pad1)*%
X100135000Y-48625000D02*
X107100000Y-41660000D01*
X97400000Y-48625000D02*
X100135000Y-48625000D01*
%TO.N,Net-(R3-Pad2)*%
X48550000Y-35000000D02*
X50550000Y-37000000D01*
X54100000Y-38500000D02*
X54100000Y-48625000D01*
X50440000Y-30400000D02*
X48550000Y-32290000D01*
X48550000Y-32290000D02*
X48550000Y-35000000D01*
X50550000Y-37000000D02*
X52600000Y-37000000D01*
X52600000Y-37000000D02*
X54100000Y-38500000D01*
%TO.N,Net-(R4-Pad1)*%
X58360000Y-34300000D02*
X58350000Y-34310000D01*
X58350000Y-34310000D02*
X58350000Y-47875000D01*
X58350000Y-47875000D02*
X59100000Y-48625000D01*
%TO.N,Net-(R5-Pad1)*%
X115300000Y-45190000D02*
X115410000Y-45300000D01*
X115300000Y-41970000D02*
X115300000Y-45190000D01*
%TO.N,Net-(R5-Pad2)*%
X105250000Y-45300000D02*
X94900000Y-55650000D01*
X94900000Y-55650000D02*
X94900000Y-64125000D01*
X107790000Y-45300000D02*
X105250000Y-45300000D01*
%TO.N,Net-(R6-Pad1)*%
X111160000Y-33980000D02*
X111150000Y-33990000D01*
X115300000Y-33980000D02*
X111160000Y-33980000D01*
%TO.N,Net-(R7-Pad1)*%
X118800000Y-41970000D02*
X118800000Y-46590000D01*
%TO.N,Net-(R8-Pad1)*%
X41700000Y-43020000D02*
X41700000Y-45950000D01*
%TO.N,Net-(R8-Pad2)*%
X55620000Y-53570000D02*
X56600000Y-54550000D01*
X41700000Y-53570000D02*
X55620000Y-53570000D01*
X56600000Y-54550000D02*
X56600000Y-64125000D01*
%TO.N,Net-(R9-Pad1)*%
X46250000Y-36900000D02*
X46250000Y-40840000D01*
%TO.N,Net-(R10-Pad1)*%
X37700000Y-43020000D02*
X37700000Y-46090000D01*
%TO.N,Net-(J2-PadT)*%
X73915000Y-114215000D02*
X81133333Y-114215000D01*
X43400000Y-59410000D02*
X43400000Y-99400000D01*
X41550000Y-108400000D02*
X68100000Y-108400000D01*
X41150000Y-108000000D02*
X41550000Y-108400000D01*
X43400000Y-99400000D02*
X41150000Y-101650000D01*
X41150000Y-101650000D02*
X41150000Y-108000000D01*
X37700000Y-53710000D02*
X43400000Y-59410000D01*
X68100000Y-108400000D02*
X73915000Y-114215000D01*
%TO.N,Net-(R11-Pad2)*%
X112025000Y-55450000D02*
X108760000Y-55450000D01*
X108760000Y-55450000D02*
X107600000Y-56610000D01*
%TO.N,Net-(R12-Pad2)*%
X44140000Y-27100000D02*
X45100000Y-26140000D01*
X38775000Y-27100000D02*
X44140000Y-27100000D01*
%TO.N,Net-(R15-Pad1)*%
X36640000Y-57800000D02*
X34340000Y-60100000D01*
X34340000Y-89400000D02*
X34340000Y-94680000D01*
X34340000Y-60100000D02*
X34340000Y-89400000D01*
X34340000Y-94680000D02*
X34400000Y-94740000D01*
%TO.N,Net-(R15-Pad2)*%
X34400000Y-109975000D02*
X35925000Y-111500000D01*
X35925000Y-111500000D02*
X33385000Y-114040000D01*
X34400000Y-102360000D02*
X34400000Y-109975000D01*
%TO.N,Net-(R18-Pad2)*%
X44260000Y-91510000D02*
X44260000Y-57800000D01*
X44260000Y-91510000D02*
X45400000Y-92650000D01*
X45400000Y-92650000D02*
X45400000Y-106025000D01*
%TO.N,Net-(R20-Pad1)*%
X117200000Y-105110000D02*
X117060000Y-105250000D01*
X111285000Y-100460000D02*
X108950000Y-98125000D01*
X117200000Y-100460000D02*
X111285000Y-100460000D01*
X117200000Y-100460000D02*
X117200000Y-105110000D01*
%TO.N,Net-(R22-Pad1)*%
X115120000Y-90760000D02*
X117200000Y-92840000D01*
X112900000Y-90760000D02*
X115120000Y-90760000D01*
%TO.N,Net-(R23-Pad1)*%
X46590000Y-82600000D02*
X46590000Y-79570000D01*
X46590000Y-79570000D02*
X46600000Y-79560000D01*
X51650000Y-69000000D02*
X53050000Y-69000000D01*
X46600000Y-79560000D02*
X46600000Y-74050000D01*
X46600000Y-74050000D02*
X51650000Y-69000000D01*
X66850000Y-69000000D02*
X66850000Y-64700000D01*
X66850000Y-64700000D02*
X69850000Y-61700000D01*
%TO.N,Net-(R24-Pad1)*%
X101330000Y-87965000D02*
X105365000Y-87965000D01*
X99315000Y-87965000D02*
X101330000Y-87965000D01*
X91960000Y-82600000D02*
X93950000Y-82600000D01*
X117800000Y-107300000D02*
X119000000Y-106100000D01*
X119000000Y-75340000D02*
X119000000Y-75790000D01*
X106650000Y-107300000D02*
X117800000Y-107300000D01*
X106650000Y-89250000D02*
X106650000Y-107300000D01*
X93950000Y-82600000D02*
X99315000Y-87965000D01*
X115300000Y-71640000D02*
X119000000Y-75340000D01*
X87610000Y-78250000D02*
X91960000Y-82600000D01*
X115300000Y-71600000D02*
X115300000Y-71640000D01*
X105365000Y-87965000D02*
X106650000Y-89250000D01*
X119000000Y-106100000D02*
X119000000Y-75790000D01*
%TO.N,Net-(R24-Pad2)*%
X104125000Y-98125000D02*
X101330000Y-98125000D01*
X115300000Y-79260000D02*
X113110000Y-81450000D01*
X113110000Y-81450000D02*
X107750000Y-81450000D01*
X115300000Y-79220000D02*
X115300000Y-79260000D01*
X104900000Y-97350000D02*
X104125000Y-98125000D01*
X104900000Y-90150000D02*
X104900000Y-97350000D01*
%TO.N,Net-(R25-Pad1)*%
X77855000Y-46560000D02*
X75320000Y-49095000D01*
X80150000Y-46460000D02*
X80050000Y-46560000D01*
D32*
X83600000Y-46460000D02*
X80150000Y-46460000D01*
D33*
X80050000Y-46560000D02*
X77855000Y-46560000D01*
%TO.N,Net-(R25-Pad2)*%
X75325000Y-38940000D02*
X75320000Y-38935000D01*
X80050000Y-38940000D02*
X75325000Y-38940000D01*
%TO.N,Net-(R26-Pad2)*%
X113135000Y-64990000D02*
X115820000Y-64990000D01*
X115820000Y-64990000D02*
X119000000Y-68170000D01*
%TO.N,Net-(R28-Pad1)*%
X92400000Y-79625000D02*
X95915000Y-83140000D01*
X95915000Y-83140000D02*
X112900000Y-83140000D01*
%TO.N,Net-(R29-Pad1)*%
X54210000Y-82600000D02*
X54210000Y-79735000D01*
X54210000Y-79735000D02*
X54100000Y-79625000D01*
%TO.N,Net-(R31-Pad1)*%
X86240000Y-94200000D02*
X90550000Y-94200000D01*
X81805000Y-94200000D02*
X78425000Y-97580000D01*
X86240000Y-94200000D02*
X81805000Y-94200000D01*
X99300000Y-105400000D02*
X101910000Y-105400000D01*
X94550000Y-100650000D02*
X99300000Y-105400000D01*
X90550000Y-94200000D02*
X94550000Y-98200000D01*
X101910000Y-105400000D02*
X101750000Y-105400000D01*
X94550000Y-98200000D02*
X94550000Y-100650000D01*
%TO.N,Net-(R32-Pad1)*%
X59100000Y-79625000D02*
X65365000Y-79625000D01*
X65365000Y-79625000D02*
X65450000Y-79710000D01*
%TO.N,Net-(R32-Pad2)*%
X65450000Y-64050000D02*
X75320000Y-54180000D01*
X65450000Y-72090000D02*
X65450000Y-64050000D01*
X75320000Y-54180000D02*
X75320000Y-54175000D01*
X75320000Y-51635000D02*
X75320000Y-54175000D01*
%TO.N,Net-(R37-Pad1)*%
X83700000Y-78300000D02*
X83700000Y-69160000D01*
X83700000Y-69160000D02*
X84900000Y-67960000D01*
X84570000Y-67960000D02*
X84900000Y-67960000D01*
X80910000Y-64300000D02*
X84570000Y-67960000D01*
%TO.N,Net-(R38-Pad1)*%
X73290000Y-60450000D02*
X73290000Y-64300000D01*
%TO.N,Net-(R39-Pad1)*%
X94200000Y-70500000D02*
X94200000Y-74000000D01*
X97400000Y-77200000D02*
X97400000Y-79625000D01*
X81950000Y-60450000D02*
X88400000Y-66900000D01*
X88400000Y-66900000D02*
X90600000Y-66900000D01*
X94200000Y-74000000D02*
X97400000Y-77200000D01*
X80910000Y-60450000D02*
X81950000Y-60450000D01*
X90600000Y-66900000D02*
X94200000Y-70500000D01*
%TO.N,Net-(J6-PadT)*%
X96650000Y-114198334D02*
X96666666Y-114215000D01*
X96650000Y-110500000D02*
X96650000Y-114198334D01*
%TO.N,Net-(R40-Pad2)*%
X83000000Y-110500000D02*
X78425000Y-105925000D01*
X89030000Y-110500000D02*
X83000000Y-110500000D01*
X78425000Y-105200000D02*
X75885000Y-105200000D01*
X78425000Y-105925000D02*
X78425000Y-105200000D01*
%TO.N,Net-(J3-PadT)*%
X40335000Y-114215000D02*
X45400000Y-114215000D01*
X35925000Y-116580000D02*
X37970000Y-116580000D01*
X37970000Y-116580000D02*
X40335000Y-114215000D01*
%TO.N,Net-(RV10-Pad2)*%
X73650000Y-101050000D02*
X74900000Y-102300000D01*
X73650000Y-85700000D02*
X73650000Y-101050000D01*
X71900000Y-83950000D02*
X73650000Y-85700000D01*
X60925000Y-83950000D02*
X71900000Y-83950000D01*
X85500000Y-102300000D02*
X86045000Y-102845000D01*
X74900000Y-102300000D02*
X85500000Y-102300000D01*
X56600000Y-79625000D02*
X60925000Y-83950000D01*
X86045000Y-102845000D02*
X86045000Y-105200000D01*
%TO.N,Net-(RV11-Pad2)*%
X82865000Y-103300000D02*
X80965000Y-105200000D01*
X84900000Y-103300000D02*
X82865000Y-103300000D01*
%TD*%
M02*
